<?xml version="1.0" encoding="utf-8" standalone="no"?>
<!DOCTYPE svg PUBLIC "-//W3C//DTD SVG 1.1//EN"
  "http://www.w3.org/Graphics/SVG/1.1/DTD/svg11.dtd">
<!-- Created with matplotlib (http://matplotlib.org/) -->
<svg height="430pt" version="1.1" viewBox="0 0 576 430" width="576pt" xmlns="http://www.w3.org/2000/svg" xmlns:xlink="http://www.w3.org/1999/xlink">
 <defs>
  <style type="text/css">
*{stroke-linecap:butt;stroke-linejoin:round;stroke-miterlimit:100000;}
  </style>
 </defs>
 <g id="figure_1">
  <g id="patch_1">
   <path d="M 0 430.2 
L 576 430.2 
L 576 0 
L 0 0 
z
" style="fill:#ffffff;"/>
  </g>
  <g id="axes_1">
   <g id="patch_2">
    <path d="M 72 387.18 
L 518.4 387.18 
L 518.4 43.02 
L 72 43.02 
z
" style="fill:#ffffff;"/>
   </g>
   <g id="line2d_1">
    <path clip-path="url(#p2850bd5db6)" d="M 72 387.18 
L 73.275429 378.576 
L 74.550857 375.1344 
L 75.826286 372.84 
L 77.101714 365.3832 
L 78.377143 363.0888 
L 79.652571 349.896 
L 80.928 347.028 
L 82.203429 341.8656 
L 83.478857 336.1296 
L 84.754286 336.1296 
L 87.305143 321.216 
L 88.580571 320.6424 
L 89.856 325.2312 
L 91.131429 310.8912 
L 92.406857 317.7744 
L 93.682286 299.4192 
L 94.957714 297.1248 
L 96.233143 300.5664 
L 97.508571 292.536 
L 98.784 285.6528 
L 100.059429 283.3584 
L 101.334857 282.7848 
L 102.610286 277.0488 
L 103.885714 252.9576 
L 105.161143 258.12 
L 106.436571 273.6072 
L 107.712 262.1352 
L 108.987429 258.6936 
L 110.262857 254.1048 
L 111.538286 254.1048 
L 112.813714 256.9728 
L 114.089143 253.5312 
L 115.364571 240.912 
L 116.64 251.8104 
L 117.915429 242.0592 
L 119.190857 219.1152 
L 120.466286 238.6176 
L 121.741714 248.3688 
L 123.017143 228.8664 
L 124.292571 226.572 
L 125.568 216.2472 
L 126.843429 226.572 
L 128.118857 217.968 
L 129.394286 221.9832 
L 130.669714 231.7344 
L 133.220571 200.76 
L 134.496 211.0848 
L 135.771429 196.1712 
L 137.046857 193.8768 
L 139.597714 178.3896 
L 140.873143 193.3032 
L 142.148571 180.684 
L 143.424 180.1104 
L 144.699429 191.0088 
L 145.974857 173.2272 
L 147.250286 176.0952 
L 148.525714 193.8768 
L 149.801143 174.948 
L 151.076571 180.1104 
L 152.352 186.9936 
L 153.627429 165.7704 
L 154.902857 180.1104 
L 156.178286 182.4048 
L 157.453714 170.9328 
L 158.729143 160.608 
L 160.004571 172.08 
L 161.28 163.476 
L 162.555429 152.004 
L 163.830857 178.9632 
L 165.106286 177.2424 
L 166.381714 169.212 
L 167.657143 152.5776 
L 168.932571 165.7704 
L 170.208 157.74 
L 171.483429 177.816 
L 172.758857 159.4608 
L 174.034286 143.9736 
L 175.309714 169.7856 
L 176.585143 167.4912 
L 177.860571 157.74 
L 179.136 153.1512 
L 180.411429 168.0648 
L 181.686857 145.6944 
L 182.962286 156.5928 
L 184.237714 133.0752 
L 185.513143 135.9432 
L 186.788571 141.1056 
L 188.064 143.4 
L 189.339429 130.7808 
L 190.614857 139.9584 
L 191.890286 139.3848 
L 193.165714 141.6792 
L 194.441143 139.3848 
L 196.992 125.0448 
L 198.267429 141.6792 
L 199.542857 141.6792 
L 200.818286 122.7504 
L 202.093714 138.8112 
L 203.369143 150.8568 
L 204.644571 125.0448 
L 205.92 115.2936 
L 207.195429 131.928 
L 208.470857 153.1512 
L 209.746286 121.0296 
L 211.021714 123.8976 
L 212.297143 101.5272 
L 213.572571 136.5168 
L 214.848 118.1616 
L 216.123429 114.1464 
L 217.398857 135.3696 
L 218.674286 130.2072 
L 219.949714 146.8416 
L 221.225143 118.7352 
L 222.500571 126.7656 
L 223.776 103.8216 
L 225.051429 122.7504 
L 226.326857 139.9584 
L 227.602286 139.3848 
L 228.877714 130.2072 
L 230.153143 131.928 
L 231.428571 118.7352 
L 232.704 111.852 
L 233.979429 127.3392 
L 235.254857 127.9128 
L 236.530286 115.8672 
L 239.081143 121.6032 
L 240.356571 123.8976 
L 241.632 125.0448 
L 242.907429 110.7048 
L 244.182857 109.5576 
L 245.458286 122.7504 
L 246.733714 111.852 
L 249.284571 126.192 
L 250.56 108.4104 
L 251.835429 129.6336 
L 253.110857 127.9128 
L 254.386286 110.1312 
L 255.661714 130.7808 
L 256.937143 123.324 
L 258.212571 128.4864 
L 259.488 118.7352 
L 260.763429 114.72 
L 262.038857 122.7504 
L 263.314286 118.7352 
L 264.589714 112.4256 
L 265.865143 110.1312 
L 267.140571 104.9688 
L 268.416 113.5728 
L 269.691429 112.4256 
L 270.966857 106.6896 
L 272.242286 106.6896 
L 273.517714 119.8824 
L 274.793143 113.5728 
L 276.068571 104.3952 
L 277.344 110.7048 
L 278.619429 122.1768 
L 279.894857 105.5424 
L 281.170286 107.8368 
L 282.445714 111.2784 
L 283.721143 109.5576 
L 284.996571 118.1616 
L 286.272 88.908 
L 287.547429 102.1008 
L 288.822857 94.0704 
L 290.098286 106.6896 
L 291.373714 108.4104 
L 292.649143 119.8824 
L 293.924571 113.5728 
L 295.2 107.8368 
L 296.475429 115.2936 
L 297.750857 108.4104 
L 299.026286 123.8976 
L 300.301714 96.3648 
L 301.577143 112.4256 
L 302.852571 122.1768 
L 304.128 101.5272 
L 305.403429 117.588 
L 306.678857 110.7048 
L 307.954286 105.5424 
L 309.229714 102.1008 
L 310.505143 97.512 
L 311.780571 111.852 
L 313.056 80.8776 
L 314.331429 100.38 
L 315.606857 109.5576 
L 316.882286 101.5272 
L 318.157714 117.588 
L 319.433143 105.5424 
L 320.708571 118.1616 
L 321.984 82.5984 
L 323.259429 107.2632 
L 324.534857 102.6744 
L 325.810286 90.0552 
L 327.085714 107.8368 
L 328.361143 102.6744 
L 329.636571 91.2024 
L 330.912 92.3496 
L 332.187429 103.8216 
L 333.462857 107.2632 
L 334.738286 115.8672 
L 336.013714 106.6896 
L 337.289143 107.2632 
L 338.564571 111.852 
L 339.84 96.3648 
L 341.115429 100.9536 
L 342.390857 94.0704 
L 343.666286 112.4256 
L 344.941714 92.3496 
L 346.217143 103.248 
L 347.492571 87.7608 
L 348.768 106.6896 
L 350.043429 98.0856 
L 351.318857 111.852 
L 352.594286 101.5272 
L 353.869714 88.908 
L 355.145143 97.512 
L 356.420571 119.3088 
L 357.696 104.9688 
L 358.971429 103.248 
L 360.246857 106.116 
L 361.522286 94.0704 
L 362.797714 105.5424 
L 364.073143 87.7608 
L 365.348571 90.0552 
L 366.624 108.4104 
L 367.899429 95.2176 
L 369.174857 99.8064 
L 370.450286 107.2632 
L 371.725714 89.4816 
L 373.001143 101.5272 
L 374.276571 117.0144 
L 375.552 110.7048 
L 376.827429 97.512 
L 378.102857 99.2328 
L 379.378286 99.8064 
L 380.653714 114.1464 
L 381.929143 99.8064 
L 383.204571 87.7608 
L 384.48 97.512 
L 385.755429 105.5424 
L 387.030857 86.6136 
L 388.306286 104.9688 
L 389.581714 105.5424 
L 390.857143 97.512 
L 392.132571 101.5272 
L 393.408 98.0856 
L 394.683429 100.38 
L 395.958857 81.4512 
L 397.234286 107.2632 
L 398.509714 95.2176 
L 399.785143 105.5424 
L 401.060571 92.3496 
L 402.336 101.5272 
L 403.611429 102.6744 
L 404.886857 110.1312 
L 406.162286 105.5424 
L 407.437714 96.9384 
L 408.713143 104.3952 
L 409.988571 117.0144 
L 411.264 95.7912 
L 412.539429 91.776 
L 413.814857 121.0296 
L 415.090286 100.9536 
L 416.365714 90.0552 
L 417.641143 106.116 
L 418.916571 100.9536 
L 420.192 94.644 
L 421.467429 111.852 
L 422.742857 88.3344 
L 424.018286 96.3648 
L 425.293714 111.852 
L 426.569143 103.8216 
L 427.844571 99.8064 
L 429.12 110.7048 
L 430.395429 87.7608 
L 431.670857 92.3496 
L 432.946286 103.248 
L 434.221714 106.116 
L 435.497143 100.38 
L 436.772571 127.9128 
L 438.048 106.116 
L 439.323429 112.9992 
L 440.598857 115.8672 
L 441.874286 110.7048 
L 443.149714 114.72 
L 444.425143 95.2176 
L 445.700571 109.5576 
L 446.976 100.9536 
L 448.251429 96.3648 
L 449.526857 77.436 
L 450.802286 104.3952 
L 452.077714 84.8928 
L 453.353143 92.9232 
L 454.628571 102.6744 
L 455.904 92.9232 
L 455.904 92.9232 
" style="fill:none;stroke:#0000ff;stroke-linecap:square;"/>
   </g>
   <g id="line2d_2">
    <path clip-path="url(#p2850bd5db6)" d="M 72 387.18 
L 75.826286 370.478068 
L 79.652571 354.748781 
L 83.478857 339.935497 
L 87.305143 325.984871 
L 91.131429 312.846666 
L 94.957714 300.47357 
L 98.784 288.821028 
L 102.610286 277.847077 
L 106.436571 267.512199 
L 110.262857 257.779177 
L 114.089143 248.612963 
L 117.915429 239.980547 
L 121.741714 231.850844 
L 125.568 224.194578 
L 129.394286 216.984178 
L 133.220571 210.19368 
L 137.046857 203.798629 
L 140.873143 197.775997 
L 144.699429 192.104095 
L 148.525714 186.7625 
L 152.352 181.731975 
L 156.178286 176.994405 
L 160.004571 172.532729 
L 163.830857 168.330881 
L 168.932571 163.106569 
L 174.034286 158.283921 
L 179.136 153.832056 
L 184.237714 149.722467 
L 189.339429 145.928838 
L 194.441143 142.426877 
L 199.542857 139.194159 
L 204.644571 136.209985 
L 209.746286 133.455245 
L 214.848 130.912299 
L 221.225143 128.006767 
L 227.602286 125.377732 
L 233.979429 122.998883 
L 240.356571 120.846412 
L 246.733714 118.898775 
L 254.386286 116.80468 
L 262.038857 114.947385 
L 269.691429 113.300111 
L 278.619429 111.612205 
L 287.547429 110.14481 
L 297.750857 108.701022 
L 307.954286 107.470707 
L 319.433143 106.302657 
L 332.187429 105.229061 
L 346.217143 104.271463 
L 362.797714 103.380519 
L 380.653714 102.647743 
L 402.336 101.994112 
L 427.844571 101.461972 
L 455.904 101.076829 
L 455.904 101.076829 
" style="fill:none;stroke:#ff0000;stroke-linecap:square;"/>
   </g>
   <g id="patch_3">
    <path d="M 72 387.18 
L 72 43.02 
" style="fill:none;stroke:#000000;stroke-linecap:square;stroke-linejoin:miter;"/>
   </g>
   <g id="patch_4">
    <path d="M 72 43.02 
L 518.4 43.02 
" style="fill:none;stroke:#000000;stroke-linecap:square;stroke-linejoin:miter;"/>
   </g>
   <g id="patch_5">
    <path d="M 72 387.18 
L 518.4 387.18 
" style="fill:none;stroke:#000000;stroke-linecap:square;stroke-linejoin:miter;"/>
   </g>
   <g id="patch_6">
    <path d="M 518.4 387.18 
L 518.4 43.02 
" style="fill:none;stroke:#000000;stroke-linecap:square;stroke-linejoin:miter;"/>
   </g>
   <g id="matplotlib.axis_1">
    <g id="xtick_1">
     <g id="line2d_3">
      <defs>
       <path d="M 0 0 
L 0 -4 
" id="mdc41b86ff8" style="stroke:#000000;stroke-width:0.5;"/>
      </defs>
      <g>
       <use style="stroke:#000000;stroke-width:0.5;" x="72.0" xlink:href="#mdc41b86ff8" y="387.18"/>
      </g>
     </g>
     <g id="line2d_4">
      <defs>
       <path d="M 0 0 
L 0 4 
" id="m7a40f38acb" style="stroke:#000000;stroke-width:0.5;"/>
      </defs>
      <g>
       <use style="stroke:#000000;stroke-width:0.5;" x="72.0" xlink:href="#m7a40f38acb" y="43.02"/>
      </g>
     </g>
     <g id="text_1">
      <!-- 0.0 -->
      <defs>
       <path d="M 31.78125 66.40625 
Q 24.171875 66.40625 20.328125 58.90625 
Q 16.5 51.421875 16.5 36.375 
Q 16.5 21.390625 20.328125 13.890625 
Q 24.171875 6.390625 31.78125 6.390625 
Q 39.453125 6.390625 43.28125 13.890625 
Q 47.125 21.390625 47.125 36.375 
Q 47.125 51.421875 43.28125 58.90625 
Q 39.453125 66.40625 31.78125 66.40625 
M 31.78125 74.21875 
Q 44.046875 74.21875 50.515625 64.515625 
Q 56.984375 54.828125 56.984375 36.375 
Q 56.984375 17.96875 50.515625 8.265625 
Q 44.046875 -1.421875 31.78125 -1.421875 
Q 19.53125 -1.421875 13.0625 8.265625 
Q 6.59375 17.96875 6.59375 36.375 
Q 6.59375 54.828125 13.0625 64.515625 
Q 19.53125 74.21875 31.78125 74.21875 
" id="BitstreamVeraSans-Roman-30"/>
       <path d="M 10.6875 12.40625 
L 21 12.40625 
L 21 0 
L 10.6875 0 
z
" id="BitstreamVeraSans-Roman-2e"/>
      </defs>
      <g transform="translate(62.458125 400.298125)scale(0.12 -0.12)">
       <use xlink:href="#BitstreamVeraSans-Roman-30"/>
       <use x="63.623046875" xlink:href="#BitstreamVeraSans-Roman-2e"/>
       <use x="95.41015625" xlink:href="#BitstreamVeraSans-Roman-30"/>
      </g>
     </g>
    </g>
    <g id="xtick_2">
     <g id="line2d_5">
      <g>
       <use style="stroke:#000000;stroke-width:0.5;" x="135.771428571" xlink:href="#mdc41b86ff8" y="387.18"/>
      </g>
     </g>
     <g id="line2d_6">
      <g>
       <use style="stroke:#000000;stroke-width:0.5;" x="135.771428571" xlink:href="#m7a40f38acb" y="43.02"/>
      </g>
     </g>
     <g id="text_2">
      <!-- 0.5 -->
      <defs>
       <path d="M 10.796875 72.90625 
L 49.515625 72.90625 
L 49.515625 64.59375 
L 19.828125 64.59375 
L 19.828125 46.734375 
Q 21.96875 47.46875 24.109375 47.828125 
Q 26.265625 48.1875 28.421875 48.1875 
Q 40.625 48.1875 47.75 41.5 
Q 54.890625 34.8125 54.890625 23.390625 
Q 54.890625 11.625 47.5625 5.09375 
Q 40.234375 -1.421875 26.90625 -1.421875 
Q 22.3125 -1.421875 17.546875 -0.640625 
Q 12.796875 0.140625 7.71875 1.703125 
L 7.71875 11.625 
Q 12.109375 9.234375 16.796875 8.0625 
Q 21.484375 6.890625 26.703125 6.890625 
Q 35.15625 6.890625 40.078125 11.328125 
Q 45.015625 15.765625 45.015625 23.390625 
Q 45.015625 31 40.078125 35.4375 
Q 35.15625 39.890625 26.703125 39.890625 
Q 22.75 39.890625 18.8125 39.015625 
Q 14.890625 38.140625 10.796875 36.28125 
z
" id="BitstreamVeraSans-Roman-35"/>
      </defs>
      <g transform="translate(126.229553571 400.298125)scale(0.12 -0.12)">
       <use xlink:href="#BitstreamVeraSans-Roman-30"/>
       <use x="63.623046875" xlink:href="#BitstreamVeraSans-Roman-2e"/>
       <use x="95.41015625" xlink:href="#BitstreamVeraSans-Roman-35"/>
      </g>
     </g>
    </g>
    <g id="xtick_3">
     <g id="line2d_7">
      <g>
       <use style="stroke:#000000;stroke-width:0.5;" x="199.542857143" xlink:href="#mdc41b86ff8" y="387.18"/>
      </g>
     </g>
     <g id="line2d_8">
      <g>
       <use style="stroke:#000000;stroke-width:0.5;" x="199.542857143" xlink:href="#m7a40f38acb" y="43.02"/>
      </g>
     </g>
     <g id="text_3">
      <!-- 1.0 -->
      <defs>
       <path d="M 12.40625 8.296875 
L 28.515625 8.296875 
L 28.515625 63.921875 
L 10.984375 60.40625 
L 10.984375 69.390625 
L 28.421875 72.90625 
L 38.28125 72.90625 
L 38.28125 8.296875 
L 54.390625 8.296875 
L 54.390625 0 
L 12.40625 0 
z
" id="BitstreamVeraSans-Roman-31"/>
      </defs>
      <g transform="translate(190.000982143 400.298125)scale(0.12 -0.12)">
       <use xlink:href="#BitstreamVeraSans-Roman-31"/>
       <use x="63.623046875" xlink:href="#BitstreamVeraSans-Roman-2e"/>
       <use x="95.41015625" xlink:href="#BitstreamVeraSans-Roman-30"/>
      </g>
     </g>
    </g>
    <g id="xtick_4">
     <g id="line2d_9">
      <g>
       <use style="stroke:#000000;stroke-width:0.5;" x="263.314285714" xlink:href="#mdc41b86ff8" y="387.18"/>
      </g>
     </g>
     <g id="line2d_10">
      <g>
       <use style="stroke:#000000;stroke-width:0.5;" x="263.314285714" xlink:href="#m7a40f38acb" y="43.02"/>
      </g>
     </g>
     <g id="text_4">
      <!-- 1.5 -->
      <g transform="translate(253.772410714 400.298125)scale(0.12 -0.12)">
       <use xlink:href="#BitstreamVeraSans-Roman-31"/>
       <use x="63.623046875" xlink:href="#BitstreamVeraSans-Roman-2e"/>
       <use x="95.41015625" xlink:href="#BitstreamVeraSans-Roman-35"/>
      </g>
     </g>
    </g>
    <g id="xtick_5">
     <g id="line2d_11">
      <g>
       <use style="stroke:#000000;stroke-width:0.5;" x="327.085714286" xlink:href="#mdc41b86ff8" y="387.18"/>
      </g>
     </g>
     <g id="line2d_12">
      <g>
       <use style="stroke:#000000;stroke-width:0.5;" x="327.085714286" xlink:href="#m7a40f38acb" y="43.02"/>
      </g>
     </g>
     <g id="text_5">
      <!-- 2.0 -->
      <defs>
       <path d="M 19.1875 8.296875 
L 53.609375 8.296875 
L 53.609375 0 
L 7.328125 0 
L 7.328125 8.296875 
Q 12.9375 14.109375 22.625 23.890625 
Q 32.328125 33.6875 34.8125 36.53125 
Q 39.546875 41.84375 41.421875 45.53125 
Q 43.3125 49.21875 43.3125 52.78125 
Q 43.3125 58.59375 39.234375 62.25 
Q 35.15625 65.921875 28.609375 65.921875 
Q 23.96875 65.921875 18.8125 64.3125 
Q 13.671875 62.703125 7.8125 59.421875 
L 7.8125 69.390625 
Q 13.765625 71.78125 18.9375 73 
Q 24.125 74.21875 28.421875 74.21875 
Q 39.75 74.21875 46.484375 68.546875 
Q 53.21875 62.890625 53.21875 53.421875 
Q 53.21875 48.921875 51.53125 44.890625 
Q 49.859375 40.875 45.40625 35.40625 
Q 44.1875 33.984375 37.640625 27.21875 
Q 31.109375 20.453125 19.1875 8.296875 
" id="BitstreamVeraSans-Roman-32"/>
      </defs>
      <g transform="translate(317.543839286 400.298125)scale(0.12 -0.12)">
       <use xlink:href="#BitstreamVeraSans-Roman-32"/>
       <use x="63.623046875" xlink:href="#BitstreamVeraSans-Roman-2e"/>
       <use x="95.41015625" xlink:href="#BitstreamVeraSans-Roman-30"/>
      </g>
     </g>
    </g>
    <g id="xtick_6">
     <g id="line2d_13">
      <g>
       <use style="stroke:#000000;stroke-width:0.5;" x="390.857142857" xlink:href="#mdc41b86ff8" y="387.18"/>
      </g>
     </g>
     <g id="line2d_14">
      <g>
       <use style="stroke:#000000;stroke-width:0.5;" x="390.857142857" xlink:href="#m7a40f38acb" y="43.02"/>
      </g>
     </g>
     <g id="text_6">
      <!-- 2.5 -->
      <g transform="translate(381.315267857 400.298125)scale(0.12 -0.12)">
       <use xlink:href="#BitstreamVeraSans-Roman-32"/>
       <use x="63.623046875" xlink:href="#BitstreamVeraSans-Roman-2e"/>
       <use x="95.41015625" xlink:href="#BitstreamVeraSans-Roman-35"/>
      </g>
     </g>
    </g>
    <g id="xtick_7">
     <g id="line2d_15">
      <g>
       <use style="stroke:#000000;stroke-width:0.5;" x="454.628571429" xlink:href="#mdc41b86ff8" y="387.18"/>
      </g>
     </g>
     <g id="line2d_16">
      <g>
       <use style="stroke:#000000;stroke-width:0.5;" x="454.628571429" xlink:href="#m7a40f38acb" y="43.02"/>
      </g>
     </g>
     <g id="text_7">
      <!-- 3.0 -->
      <defs>
       <path d="M 40.578125 39.3125 
Q 47.65625 37.796875 51.625 33 
Q 55.609375 28.21875 55.609375 21.1875 
Q 55.609375 10.40625 48.1875 4.484375 
Q 40.765625 -1.421875 27.09375 -1.421875 
Q 22.515625 -1.421875 17.65625 -0.515625 
Q 12.796875 0.390625 7.625 2.203125 
L 7.625 11.71875 
Q 11.71875 9.328125 16.59375 8.109375 
Q 21.484375 6.890625 26.8125 6.890625 
Q 36.078125 6.890625 40.9375 10.546875 
Q 45.796875 14.203125 45.796875 21.1875 
Q 45.796875 27.640625 41.28125 31.265625 
Q 36.765625 34.90625 28.71875 34.90625 
L 20.21875 34.90625 
L 20.21875 43.015625 
L 29.109375 43.015625 
Q 36.375 43.015625 40.234375 45.921875 
Q 44.09375 48.828125 44.09375 54.296875 
Q 44.09375 59.90625 40.109375 62.90625 
Q 36.140625 65.921875 28.71875 65.921875 
Q 24.65625 65.921875 20.015625 65.03125 
Q 15.375 64.15625 9.8125 62.3125 
L 9.8125 71.09375 
Q 15.4375 72.65625 20.34375 73.4375 
Q 25.25 74.21875 29.59375 74.21875 
Q 40.828125 74.21875 47.359375 69.109375 
Q 53.90625 64.015625 53.90625 55.328125 
Q 53.90625 49.265625 50.4375 45.09375 
Q 46.96875 40.921875 40.578125 39.3125 
" id="BitstreamVeraSans-Roman-33"/>
      </defs>
      <g transform="translate(445.086696429 400.298125)scale(0.12 -0.12)">
       <use xlink:href="#BitstreamVeraSans-Roman-33"/>
       <use x="63.623046875" xlink:href="#BitstreamVeraSans-Roman-2e"/>
       <use x="95.41015625" xlink:href="#BitstreamVeraSans-Roman-30"/>
      </g>
     </g>
    </g>
    <g id="xtick_8">
     <g id="line2d_17">
      <g>
       <use style="stroke:#000000;stroke-width:0.5;" x="518.4" xlink:href="#mdc41b86ff8" y="387.18"/>
      </g>
     </g>
     <g id="line2d_18">
      <g>
       <use style="stroke:#000000;stroke-width:0.5;" x="518.4" xlink:href="#m7a40f38acb" y="43.02"/>
      </g>
     </g>
     <g id="text_8">
      <!-- 3.5 -->
      <g transform="translate(508.858125 400.298125)scale(0.12 -0.12)">
       <use xlink:href="#BitstreamVeraSans-Roman-33"/>
       <use x="63.623046875" xlink:href="#BitstreamVeraSans-Roman-2e"/>
       <use x="95.41015625" xlink:href="#BitstreamVeraSans-Roman-35"/>
      </g>
     </g>
    </g>
   </g>
   <g id="matplotlib.axis_2">
    <g id="ytick_1">
     <g id="line2d_19">
      <defs>
       <path d="M 0 0 
L 4 0 
" id="maaa23b7195" style="stroke:#000000;stroke-width:0.5;"/>
      </defs>
      <g>
       <use style="stroke:#000000;stroke-width:0.5;" x="72.0" xlink:href="#maaa23b7195" y="387.18"/>
      </g>
     </g>
     <g id="line2d_20">
      <defs>
       <path d="M 0 0 
L -4 0 
" id="m0c872552ac" style="stroke:#000000;stroke-width:0.5;"/>
      </defs>
      <g>
       <use style="stroke:#000000;stroke-width:0.5;" x="518.4" xlink:href="#m0c872552ac" y="387.18"/>
      </g>
     </g>
     <g id="text_9">
      <!-- 0.0 -->
      <g transform="translate(48.91625 390.49125)scale(0.12 -0.12)">
       <use xlink:href="#BitstreamVeraSans-Roman-30"/>
       <use x="63.623046875" xlink:href="#BitstreamVeraSans-Roman-2e"/>
       <use x="95.41015625" xlink:href="#BitstreamVeraSans-Roman-30"/>
      </g>
     </g>
    </g>
    <g id="ytick_2">
     <g id="line2d_21">
      <g>
       <use style="stroke:#000000;stroke-width:0.5;" x="72.0" xlink:href="#maaa23b7195" y="329.82"/>
      </g>
     </g>
     <g id="line2d_22">
      <g>
       <use style="stroke:#000000;stroke-width:0.5;" x="518.4" xlink:href="#m0c872552ac" y="329.82"/>
      </g>
     </g>
     <g id="text_10">
      <!-- 0.1 -->
      <g transform="translate(48.91625 333.13125)scale(0.12 -0.12)">
       <use xlink:href="#BitstreamVeraSans-Roman-30"/>
       <use x="63.623046875" xlink:href="#BitstreamVeraSans-Roman-2e"/>
       <use x="95.41015625" xlink:href="#BitstreamVeraSans-Roman-31"/>
      </g>
     </g>
    </g>
    <g id="ytick_3">
     <g id="line2d_23">
      <g>
       <use style="stroke:#000000;stroke-width:0.5;" x="72.0" xlink:href="#maaa23b7195" y="272.46"/>
      </g>
     </g>
     <g id="line2d_24">
      <g>
       <use style="stroke:#000000;stroke-width:0.5;" x="518.4" xlink:href="#m0c872552ac" y="272.46"/>
      </g>
     </g>
     <g id="text_11">
      <!-- 0.2 -->
      <g transform="translate(48.91625 275.77125)scale(0.12 -0.12)">
       <use xlink:href="#BitstreamVeraSans-Roman-30"/>
       <use x="63.623046875" xlink:href="#BitstreamVeraSans-Roman-2e"/>
       <use x="95.41015625" xlink:href="#BitstreamVeraSans-Roman-32"/>
      </g>
     </g>
    </g>
    <g id="ytick_4">
     <g id="line2d_25">
      <g>
       <use style="stroke:#000000;stroke-width:0.5;" x="72.0" xlink:href="#maaa23b7195" y="215.1"/>
      </g>
     </g>
     <g id="line2d_26">
      <g>
       <use style="stroke:#000000;stroke-width:0.5;" x="518.4" xlink:href="#m0c872552ac" y="215.1"/>
      </g>
     </g>
     <g id="text_12">
      <!-- 0.3 -->
      <g transform="translate(48.91625 218.41125)scale(0.12 -0.12)">
       <use xlink:href="#BitstreamVeraSans-Roman-30"/>
       <use x="63.623046875" xlink:href="#BitstreamVeraSans-Roman-2e"/>
       <use x="95.41015625" xlink:href="#BitstreamVeraSans-Roman-33"/>
      </g>
     </g>
    </g>
    <g id="ytick_5">
     <g id="line2d_27">
      <g>
       <use style="stroke:#000000;stroke-width:0.5;" x="72.0" xlink:href="#maaa23b7195" y="157.74"/>
      </g>
     </g>
     <g id="line2d_28">
      <g>
       <use style="stroke:#000000;stroke-width:0.5;" x="518.4" xlink:href="#m0c872552ac" y="157.74"/>
      </g>
     </g>
     <g id="text_13">
      <!-- 0.4 -->
      <defs>
       <path d="M 37.796875 64.3125 
L 12.890625 25.390625 
L 37.796875 25.390625 
z
M 35.203125 72.90625 
L 47.609375 72.90625 
L 47.609375 25.390625 
L 58.015625 25.390625 
L 58.015625 17.1875 
L 47.609375 17.1875 
L 47.609375 0 
L 37.796875 0 
L 37.796875 17.1875 
L 4.890625 17.1875 
L 4.890625 26.703125 
z
" id="BitstreamVeraSans-Roman-34"/>
      </defs>
      <g transform="translate(48.91625 161.05125)scale(0.12 -0.12)">
       <use xlink:href="#BitstreamVeraSans-Roman-30"/>
       <use x="63.623046875" xlink:href="#BitstreamVeraSans-Roman-2e"/>
       <use x="95.41015625" xlink:href="#BitstreamVeraSans-Roman-34"/>
      </g>
     </g>
    </g>
    <g id="ytick_6">
     <g id="line2d_29">
      <g>
       <use style="stroke:#000000;stroke-width:0.5;" x="72.0" xlink:href="#maaa23b7195" y="100.38"/>
      </g>
     </g>
     <g id="line2d_30">
      <g>
       <use style="stroke:#000000;stroke-width:0.5;" x="518.4" xlink:href="#m0c872552ac" y="100.38"/>
      </g>
     </g>
     <g id="text_14">
      <!-- 0.5 -->
      <g transform="translate(48.91625 103.69125)scale(0.12 -0.12)">
       <use xlink:href="#BitstreamVeraSans-Roman-30"/>
       <use x="63.623046875" xlink:href="#BitstreamVeraSans-Roman-2e"/>
       <use x="95.41015625" xlink:href="#BitstreamVeraSans-Roman-35"/>
      </g>
     </g>
    </g>
    <g id="ytick_7">
     <g id="line2d_31">
      <g>
       <use style="stroke:#000000;stroke-width:0.5;" x="72.0" xlink:href="#maaa23b7195" y="43.02"/>
      </g>
     </g>
     <g id="line2d_32">
      <g>
       <use style="stroke:#000000;stroke-width:0.5;" x="518.4" xlink:href="#m0c872552ac" y="43.02"/>
      </g>
     </g>
     <g id="text_15">
      <!-- 0.6 -->
      <defs>
       <path d="M 33.015625 40.375 
Q 26.375 40.375 22.484375 35.828125 
Q 18.609375 31.296875 18.609375 23.390625 
Q 18.609375 15.53125 22.484375 10.953125 
Q 26.375 6.390625 33.015625 6.390625 
Q 39.65625 6.390625 43.53125 10.953125 
Q 47.40625 15.53125 47.40625 23.390625 
Q 47.40625 31.296875 43.53125 35.828125 
Q 39.65625 40.375 33.015625 40.375 
M 52.59375 71.296875 
L 52.59375 62.3125 
Q 48.875 64.0625 45.09375 64.984375 
Q 41.3125 65.921875 37.59375 65.921875 
Q 27.828125 65.921875 22.671875 59.328125 
Q 17.53125 52.734375 16.796875 39.40625 
Q 19.671875 43.65625 24.015625 45.921875 
Q 28.375 48.1875 33.59375 48.1875 
Q 44.578125 48.1875 50.953125 41.515625 
Q 57.328125 34.859375 57.328125 23.390625 
Q 57.328125 12.15625 50.6875 5.359375 
Q 44.046875 -1.421875 33.015625 -1.421875 
Q 20.359375 -1.421875 13.671875 8.265625 
Q 6.984375 17.96875 6.984375 36.375 
Q 6.984375 53.65625 15.1875 63.9375 
Q 23.390625 74.21875 37.203125 74.21875 
Q 40.921875 74.21875 44.703125 73.484375 
Q 48.484375 72.75 52.59375 71.296875 
" id="BitstreamVeraSans-Roman-36"/>
      </defs>
      <g transform="translate(48.91625 46.33125)scale(0.12 -0.12)">
       <use xlink:href="#BitstreamVeraSans-Roman-30"/>
       <use x="63.623046875" xlink:href="#BitstreamVeraSans-Roman-2e"/>
       <use x="95.41015625" xlink:href="#BitstreamVeraSans-Roman-36"/>
      </g>
     </g>
    </g>
   </g>
  </g>
 </g>
 <defs>
  <clipPath id="p2850bd5db6">
   <rect height="344.16" width="446.4" x="72.0" y="43.02"/>
  </clipPath>
 </defs>
</svg>
