<?xml version="1.0" encoding="utf-8" standalone="no"?>
<!DOCTYPE svg PUBLIC "-//W3C//DTD SVG 1.1//EN"
  "http://www.w3.org/Graphics/SVG/1.1/DTD/svg11.dtd">
<!-- Created with matplotlib (http://matplotlib.org/) -->
<svg height="430pt" version="1.1" viewBox="0 0 576 430" width="576pt" xmlns="http://www.w3.org/2000/svg" xmlns:xlink="http://www.w3.org/1999/xlink">
 <defs>
  <style type="text/css">
*{stroke-linecap:butt;stroke-linejoin:round;stroke-miterlimit:100000;}
  </style>
 </defs>
 <g id="figure_1">
  <g id="patch_1">
   <path d="M 0 430.2 
L 576 430.2 
L 576 0 
L 0 0 
z
" style="fill:#ffffff;"/>
  </g>
  <g id="axes_1">
   <g id="patch_2">
    <path d="M 72 387.18 
L 518.4 387.18 
L 518.4 43.02 
L 72 43.02 
z
" style="fill:#ffffff;"/>
   </g>
   <g id="line2d_1">
    <path clip-path="url(#pd01ff5b1a8)" d="M 72 387.18 
L 73.275429 382.82064 
L 74.550857 375.53592 
L 75.826286 371.1192 
L 77.101714 364.75224 
L 78.377143 361.19592 
L 79.652571 353.85384 
L 80.928 350.01072 
L 82.203429 344.61888 
L 83.478857 340.89048 
L 86.029714 330.22152 
L 87.305143 326.49312 
L 88.580571 322.3632 
L 89.856 318.74952 
L 91.131429 314.39016 
L 92.406857 307.4496 
L 93.682286 302.74608 
L 94.957714 300.22224 
L 96.233143 298.09992 
L 97.508571 288.75024 
L 98.784 289.55328 
L 100.059429 285.88224 
L 101.334857 280.26096 
L 102.610286 277.79448 
L 103.885714 273.37776 
L 105.161143 273.26304 
L 107.712 258.57888 
L 108.987429 260.58648 
L 110.262857 257.37432 
L 111.538286 253.2444 
L 112.813714 250.89264 
L 114.089143 251.69568 
L 115.364571 243.14904 
L 116.64 242.28864 
L 117.915429 243.60792 
L 119.190857 237.92928 
L 120.466286 236.43792 
L 121.741714 228.69432 
L 123.017143 231.84912 
L 124.292571 227.26032 
L 125.568 225.59688 
L 126.843429 218.77104 
L 128.118857 217.6812 
L 129.394286 213.14976 
L 130.669714 216.59136 
L 131.945143 208.10208 
L 133.220571 212.57616 
L 134.496 209.01984 
L 137.046857 203.68536 
L 138.322286 203.74272 
L 139.597714 198.12144 
L 140.873143 196.40064 
L 142.148571 195.19608 
L 143.424 193.47528 
L 144.699429 194.33568 
L 145.974857 189.288 
L 147.250286 189.40272 
L 148.525714 187.91136 
L 149.801143 181.48704 
L 151.076571 185.78904 
L 152.352 184.06824 
L 153.627429 178.84848 
L 154.902857 177.12768 
L 156.178286 178.9632 
L 157.453714 176.15256 
L 158.729143 172.30944 
L 160.004571 176.55408 
L 161.28 174.6612 
L 162.555429 169.4988 
L 163.830857 167.08968 
L 165.106286 170.18712 
L 166.381714 168.3516 
L 167.657143 164.22168 
L 168.932571 162.6156 
L 170.208 161.69784 
L 171.483429 160.49328 
L 172.758857 159.86232 
L 174.034286 159.00192 
L 175.309714 160.43592 
L 176.585143 157.79736 
L 177.860571 157.51056 
L 179.136 155.21616 
L 180.411429 150.39792 
L 181.686857 149.07864 
L 182.962286 151.08624 
L 184.237714 148.90656 
L 185.513143 147.64464 
L 186.788571 150.57 
L 188.064 144.5472 
L 189.339429 146.49744 
L 190.614857 144.37512 
L 191.890286 143.6868 
L 193.165714 144.08832 
L 194.441143 144.834 
L 195.716571 142.31016 
L 198.267429 138.86856 
L 199.542857 139.04064 
L 200.818286 138.06552 
L 202.093714 134.27976 
L 203.369143 135.54168 
L 204.644571 137.664 
L 205.92 134.68128 
L 207.195429 139.21272 
L 208.470857 135.54168 
L 209.746286 133.362 
L 211.021714 130.2072 
L 212.297143 136.17264 
L 213.572571 134.68128 
L 214.848 132.2148 
L 216.123429 130.7808 
L 217.398857 130.2072 
L 218.674286 128.54376 
L 219.949714 127.9128 
L 221.225143 124.01232 
L 222.500571 123.38136 
L 223.776 123.66816 
L 225.051429 126.07728 
L 226.326857 125.15952 
L 227.602286 126.36408 
L 228.877714 122.80776 
L 230.153143 126.192 
L 231.428571 122.69304 
L 232.704 121.43112 
L 233.979429 123.78288 
L 235.254857 121.43112 
L 236.530286 118.39104 
L 237.805714 126.07728 
L 239.081143 118.62048 
L 240.356571 118.79256 
L 241.632 122.23416 
L 242.907429 119.48088 
L 244.182857 115.23624 
L 245.458286 122.34888 
L 246.733714 119.8824 
L 248.009143 117.98952 
L 249.284571 122.00472 
L 250.56 118.96464 
L 251.835429 117.53064 
L 253.110857 117.18648 
L 254.386286 122.80776 
L 255.661714 116.21136 
L 256.937143 116.21136 
L 258.212571 114.72 
L 259.488 111.67992 
L 260.763429 118.50576 
L 263.314286 111.04896 
L 264.589714 112.31088 
L 265.865143 116.67024 
L 267.140571 110.418 
L 268.416 115.2936 
L 269.691429 107.8368 
L 270.966857 112.76976 
L 272.242286 113.286 
L 273.517714 118.10424 
L 274.793143 106.86168 
L 276.068571 114.31848 
L 277.344 106.4028 
L 278.619429 111.10632 
L 279.894857 109.2708 
L 281.170286 114.60528 
L 282.445714 109.50024 
L 283.721143 113.40072 
L 284.996571 110.18856 
L 286.272 111.67992 
L 287.547429 108.00888 
L 288.822857 112.19616 
L 291.373714 103.13328 
L 292.649143 110.18856 
L 293.924571 110.418 
L 295.2 107.43528 
L 296.475429 111.39312 
L 297.750857 110.81952 
L 299.026286 109.8444 
L 300.301714 109.5576 
L 301.577143 101.12568 
L 302.852571 108.6972 
L 304.128 108.29568 
L 305.403429 110.18856 
L 306.678857 106.00128 
L 307.954286 104.56728 
L 309.229714 107.89416 
L 310.505143 105.37032 
L 311.780571 109.61496 
L 313.056 106.63224 
L 314.331429 109.78704 
L 315.606857 108.63984 
L 316.882286 104.16576 
L 318.157714 103.36272 
L 319.433143 106.74696 
L 320.708571 105.37032 
L 321.984 105.48504 
L 323.259429 108.92664 
L 324.534857 108.23832 
L 325.810286 107.89416 
L 327.085714 106.63224 
L 328.361143 103.5348 
L 329.636571 102.27288 
L 330.912 108.35304 
L 332.187429 107.60736 
L 333.462857 105.48504 
L 334.738286 102.1008 
L 336.013714 103.87896 
L 337.289143 104.22312 
L 338.564571 100.32264 
L 339.84 103.07592 
L 341.115429 108.18096 
L 342.390857 100.38 
L 343.666286 108.63984 
L 344.941714 110.24592 
L 346.217143 102.78912 
L 347.492571 107.77944 
L 348.768 104.50992 
L 350.043429 102.04344 
L 351.318857 105.31296 
L 352.594286 99.00336 
L 353.869714 104.73936 
L 355.145143 99.97848 
L 356.420571 100.72416 
L 357.696 102.55968 
L 358.971429 100.83888 
L 360.246857 106.80432 
L 361.522286 100.83888 
L 362.797714 107.60736 
L 364.073143 103.99368 
L 365.348571 105.5424 
L 366.624 104.62464 
L 367.899429 104.85408 
L 370.450286 98.02824 
L 373.001143 105.19824 
L 374.276571 102.21552 
L 375.552 104.33784 
L 376.827429 100.60944 
L 378.102857 112.48296 
L 379.378286 105.42768 
L 380.653714 97.11048 
L 381.929143 105.88656 
L 383.204571 100.60944 
L 384.48 100.38 
L 385.755429 104.28048 
L 387.030857 99.29016 
L 388.306286 99.74904 
L 389.581714 101.41248 
L 390.857143 107.43528 
L 392.132571 98.25768 
L 393.408 100.26528 
L 394.683429 103.01856 
L 395.958857 100.0932 
L 397.234286 108.75456 
L 398.509714 105.8292 
L 399.785143 102.3876 
L 401.060571 100.03584 
L 402.336 101.75664 
L 403.611429 101.41248 
L 404.886857 102.84648 
L 406.162286 103.76424 
L 407.437714 107.32056 
L 408.713143 102.04344 
L 409.988571 104.16576 
L 411.264 102.15816 
L 412.539429 101.92872 
L 413.814857 99.34752 
L 415.090286 100.15056 
L 416.365714 99.46224 
L 417.641143 102.44496 
L 418.916571 107.37792 
L 420.192 97.16784 
L 421.467429 105.14088 
L 422.742857 103.01856 
L 424.018286 99.46224 
L 425.293714 101.98608 
L 426.569143 92.75112 
L 427.844571 95.04552 
L 429.12 100.6668 
L 430.395429 100.60944 
L 431.670857 99.92112 
L 432.946286 97.45464 
L 434.221714 100.38 
L 435.497143 101.29776 
L 436.772571 99.63432 
L 438.048 103.36272 
L 439.323429 104.3952 
L 440.598857 99.5196 
L 441.874286 101.18304 
L 443.149714 97.62672 
L 444.425143 100.03584 
L 445.700571 100.9536 
L 446.976 103.5348 
L 448.251429 96.99576 
L 449.526857 99.92112 
L 450.802286 101.35512 
L 452.077714 99.34752 
L 453.353143 97.62672 
L 454.628571 96.6516 
L 455.904 101.01096 
L 455.904 101.01096 
" style="fill:none;stroke:#0000ff;stroke-linecap:square;"/>
   </g>
   <g id="line2d_2">
    <path clip-path="url(#pd01ff5b1a8)" d="M 72 387.18 
L 75.826286 370.478068 
L 79.652571 354.748781 
L 83.478857 339.935497 
L 87.305143 325.984871 
L 91.131429 312.846666 
L 94.957714 300.47357 
L 98.784 288.821028 
L 102.610286 277.847077 
L 106.436571 267.512199 
L 110.262857 257.779177 
L 114.089143 248.612963 
L 117.915429 239.980547 
L 121.741714 231.850844 
L 125.568 224.194578 
L 129.394286 216.984178 
L 133.220571 210.19368 
L 137.046857 203.798629 
L 140.873143 197.775997 
L 144.699429 192.104095 
L 148.525714 186.7625 
L 152.352 181.731975 
L 156.178286 176.994405 
L 160.004571 172.532729 
L 163.830857 168.330881 
L 168.932571 163.106569 
L 174.034286 158.283921 
L 179.136 153.832056 
L 184.237714 149.722467 
L 189.339429 145.928838 
L 194.441143 142.426877 
L 199.542857 139.194159 
L 204.644571 136.209985 
L 209.746286 133.455245 
L 214.848 130.912299 
L 221.225143 128.006767 
L 227.602286 125.377732 
L 233.979429 122.998883 
L 240.356571 120.846412 
L 246.733714 118.898775 
L 254.386286 116.80468 
L 262.038857 114.947385 
L 269.691429 113.300111 
L 278.619429 111.612205 
L 287.547429 110.14481 
L 297.750857 108.701022 
L 307.954286 107.470707 
L 319.433143 106.302657 
L 332.187429 105.229061 
L 346.217143 104.271463 
L 362.797714 103.380519 
L 380.653714 102.647743 
L 402.336 101.994112 
L 427.844571 101.461972 
L 455.904 101.076829 
L 455.904 101.076829 
" style="fill:none;stroke:#ff0000;stroke-linecap:square;"/>
   </g>
   <g id="patch_3">
    <path d="M 72 387.18 
L 72 43.02 
" style="fill:none;stroke:#000000;stroke-linecap:square;stroke-linejoin:miter;"/>
   </g>
   <g id="patch_4">
    <path d="M 72 43.02 
L 518.4 43.02 
" style="fill:none;stroke:#000000;stroke-linecap:square;stroke-linejoin:miter;"/>
   </g>
   <g id="patch_5">
    <path d="M 72 387.18 
L 518.4 387.18 
" style="fill:none;stroke:#000000;stroke-linecap:square;stroke-linejoin:miter;"/>
   </g>
   <g id="patch_6">
    <path d="M 518.4 387.18 
L 518.4 43.02 
" style="fill:none;stroke:#000000;stroke-linecap:square;stroke-linejoin:miter;"/>
   </g>
   <g id="matplotlib.axis_1">
    <g id="xtick_1">
     <g id="line2d_3">
      <defs>
       <path d="M 0 0 
L 0 -4 
" id="m88ee6e66c5" style="stroke:#000000;stroke-width:0.5;"/>
      </defs>
      <g>
       <use style="stroke:#000000;stroke-width:0.5;" x="72.0" xlink:href="#m88ee6e66c5" y="387.18"/>
      </g>
     </g>
     <g id="line2d_4">
      <defs>
       <path d="M 0 0 
L 0 4 
" id="m0f29803129" style="stroke:#000000;stroke-width:0.5;"/>
      </defs>
      <g>
       <use style="stroke:#000000;stroke-width:0.5;" x="72.0" xlink:href="#m0f29803129" y="43.02"/>
      </g>
     </g>
     <g id="text_1">
      <!-- 0.0 -->
      <defs>
       <path d="M 31.78125 66.40625 
Q 24.171875 66.40625 20.328125 58.90625 
Q 16.5 51.421875 16.5 36.375 
Q 16.5 21.390625 20.328125 13.890625 
Q 24.171875 6.390625 31.78125 6.390625 
Q 39.453125 6.390625 43.28125 13.890625 
Q 47.125 21.390625 47.125 36.375 
Q 47.125 51.421875 43.28125 58.90625 
Q 39.453125 66.40625 31.78125 66.40625 
M 31.78125 74.21875 
Q 44.046875 74.21875 50.515625 64.515625 
Q 56.984375 54.828125 56.984375 36.375 
Q 56.984375 17.96875 50.515625 8.265625 
Q 44.046875 -1.421875 31.78125 -1.421875 
Q 19.53125 -1.421875 13.0625 8.265625 
Q 6.59375 17.96875 6.59375 36.375 
Q 6.59375 54.828125 13.0625 64.515625 
Q 19.53125 74.21875 31.78125 74.21875 
" id="BitstreamVeraSans-Roman-30"/>
       <path d="M 10.6875 12.40625 
L 21 12.40625 
L 21 0 
L 10.6875 0 
z
" id="BitstreamVeraSans-Roman-2e"/>
      </defs>
      <g transform="translate(62.458125 400.298125)scale(0.12 -0.12)">
       <use xlink:href="#BitstreamVeraSans-Roman-30"/>
       <use x="63.623046875" xlink:href="#BitstreamVeraSans-Roman-2e"/>
       <use x="95.41015625" xlink:href="#BitstreamVeraSans-Roman-30"/>
      </g>
     </g>
    </g>
    <g id="xtick_2">
     <g id="line2d_5">
      <g>
       <use style="stroke:#000000;stroke-width:0.5;" x="135.771428571" xlink:href="#m88ee6e66c5" y="387.18"/>
      </g>
     </g>
     <g id="line2d_6">
      <g>
       <use style="stroke:#000000;stroke-width:0.5;" x="135.771428571" xlink:href="#m0f29803129" y="43.02"/>
      </g>
     </g>
     <g id="text_2">
      <!-- 0.5 -->
      <defs>
       <path d="M 10.796875 72.90625 
L 49.515625 72.90625 
L 49.515625 64.59375 
L 19.828125 64.59375 
L 19.828125 46.734375 
Q 21.96875 47.46875 24.109375 47.828125 
Q 26.265625 48.1875 28.421875 48.1875 
Q 40.625 48.1875 47.75 41.5 
Q 54.890625 34.8125 54.890625 23.390625 
Q 54.890625 11.625 47.5625 5.09375 
Q 40.234375 -1.421875 26.90625 -1.421875 
Q 22.3125 -1.421875 17.546875 -0.640625 
Q 12.796875 0.140625 7.71875 1.703125 
L 7.71875 11.625 
Q 12.109375 9.234375 16.796875 8.0625 
Q 21.484375 6.890625 26.703125 6.890625 
Q 35.15625 6.890625 40.078125 11.328125 
Q 45.015625 15.765625 45.015625 23.390625 
Q 45.015625 31 40.078125 35.4375 
Q 35.15625 39.890625 26.703125 39.890625 
Q 22.75 39.890625 18.8125 39.015625 
Q 14.890625 38.140625 10.796875 36.28125 
z
" id="BitstreamVeraSans-Roman-35"/>
      </defs>
      <g transform="translate(126.229553571 400.298125)scale(0.12 -0.12)">
       <use xlink:href="#BitstreamVeraSans-Roman-30"/>
       <use x="63.623046875" xlink:href="#BitstreamVeraSans-Roman-2e"/>
       <use x="95.41015625" xlink:href="#BitstreamVeraSans-Roman-35"/>
      </g>
     </g>
    </g>
    <g id="xtick_3">
     <g id="line2d_7">
      <g>
       <use style="stroke:#000000;stroke-width:0.5;" x="199.542857143" xlink:href="#m88ee6e66c5" y="387.18"/>
      </g>
     </g>
     <g id="line2d_8">
      <g>
       <use style="stroke:#000000;stroke-width:0.5;" x="199.542857143" xlink:href="#m0f29803129" y="43.02"/>
      </g>
     </g>
     <g id="text_3">
      <!-- 1.0 -->
      <defs>
       <path d="M 12.40625 8.296875 
L 28.515625 8.296875 
L 28.515625 63.921875 
L 10.984375 60.40625 
L 10.984375 69.390625 
L 28.421875 72.90625 
L 38.28125 72.90625 
L 38.28125 8.296875 
L 54.390625 8.296875 
L 54.390625 0 
L 12.40625 0 
z
" id="BitstreamVeraSans-Roman-31"/>
      </defs>
      <g transform="translate(190.000982143 400.298125)scale(0.12 -0.12)">
       <use xlink:href="#BitstreamVeraSans-Roman-31"/>
       <use x="63.623046875" xlink:href="#BitstreamVeraSans-Roman-2e"/>
       <use x="95.41015625" xlink:href="#BitstreamVeraSans-Roman-30"/>
      </g>
     </g>
    </g>
    <g id="xtick_4">
     <g id="line2d_9">
      <g>
       <use style="stroke:#000000;stroke-width:0.5;" x="263.314285714" xlink:href="#m88ee6e66c5" y="387.18"/>
      </g>
     </g>
     <g id="line2d_10">
      <g>
       <use style="stroke:#000000;stroke-width:0.5;" x="263.314285714" xlink:href="#m0f29803129" y="43.02"/>
      </g>
     </g>
     <g id="text_4">
      <!-- 1.5 -->
      <g transform="translate(253.772410714 400.298125)scale(0.12 -0.12)">
       <use xlink:href="#BitstreamVeraSans-Roman-31"/>
       <use x="63.623046875" xlink:href="#BitstreamVeraSans-Roman-2e"/>
       <use x="95.41015625" xlink:href="#BitstreamVeraSans-Roman-35"/>
      </g>
     </g>
    </g>
    <g id="xtick_5">
     <g id="line2d_11">
      <g>
       <use style="stroke:#000000;stroke-width:0.5;" x="327.085714286" xlink:href="#m88ee6e66c5" y="387.18"/>
      </g>
     </g>
     <g id="line2d_12">
      <g>
       <use style="stroke:#000000;stroke-width:0.5;" x="327.085714286" xlink:href="#m0f29803129" y="43.02"/>
      </g>
     </g>
     <g id="text_5">
      <!-- 2.0 -->
      <defs>
       <path d="M 19.1875 8.296875 
L 53.609375 8.296875 
L 53.609375 0 
L 7.328125 0 
L 7.328125 8.296875 
Q 12.9375 14.109375 22.625 23.890625 
Q 32.328125 33.6875 34.8125 36.53125 
Q 39.546875 41.84375 41.421875 45.53125 
Q 43.3125 49.21875 43.3125 52.78125 
Q 43.3125 58.59375 39.234375 62.25 
Q 35.15625 65.921875 28.609375 65.921875 
Q 23.96875 65.921875 18.8125 64.3125 
Q 13.671875 62.703125 7.8125 59.421875 
L 7.8125 69.390625 
Q 13.765625 71.78125 18.9375 73 
Q 24.125 74.21875 28.421875 74.21875 
Q 39.75 74.21875 46.484375 68.546875 
Q 53.21875 62.890625 53.21875 53.421875 
Q 53.21875 48.921875 51.53125 44.890625 
Q 49.859375 40.875 45.40625 35.40625 
Q 44.1875 33.984375 37.640625 27.21875 
Q 31.109375 20.453125 19.1875 8.296875 
" id="BitstreamVeraSans-Roman-32"/>
      </defs>
      <g transform="translate(317.543839286 400.298125)scale(0.12 -0.12)">
       <use xlink:href="#BitstreamVeraSans-Roman-32"/>
       <use x="63.623046875" xlink:href="#BitstreamVeraSans-Roman-2e"/>
       <use x="95.41015625" xlink:href="#BitstreamVeraSans-Roman-30"/>
      </g>
     </g>
    </g>
    <g id="xtick_6">
     <g id="line2d_13">
      <g>
       <use style="stroke:#000000;stroke-width:0.5;" x="390.857142857" xlink:href="#m88ee6e66c5" y="387.18"/>
      </g>
     </g>
     <g id="line2d_14">
      <g>
       <use style="stroke:#000000;stroke-width:0.5;" x="390.857142857" xlink:href="#m0f29803129" y="43.02"/>
      </g>
     </g>
     <g id="text_6">
      <!-- 2.5 -->
      <g transform="translate(381.315267857 400.298125)scale(0.12 -0.12)">
       <use xlink:href="#BitstreamVeraSans-Roman-32"/>
       <use x="63.623046875" xlink:href="#BitstreamVeraSans-Roman-2e"/>
       <use x="95.41015625" xlink:href="#BitstreamVeraSans-Roman-35"/>
      </g>
     </g>
    </g>
    <g id="xtick_7">
     <g id="line2d_15">
      <g>
       <use style="stroke:#000000;stroke-width:0.5;" x="454.628571429" xlink:href="#m88ee6e66c5" y="387.18"/>
      </g>
     </g>
     <g id="line2d_16">
      <g>
       <use style="stroke:#000000;stroke-width:0.5;" x="454.628571429" xlink:href="#m0f29803129" y="43.02"/>
      </g>
     </g>
     <g id="text_7">
      <!-- 3.0 -->
      <defs>
       <path d="M 40.578125 39.3125 
Q 47.65625 37.796875 51.625 33 
Q 55.609375 28.21875 55.609375 21.1875 
Q 55.609375 10.40625 48.1875 4.484375 
Q 40.765625 -1.421875 27.09375 -1.421875 
Q 22.515625 -1.421875 17.65625 -0.515625 
Q 12.796875 0.390625 7.625 2.203125 
L 7.625 11.71875 
Q 11.71875 9.328125 16.59375 8.109375 
Q 21.484375 6.890625 26.8125 6.890625 
Q 36.078125 6.890625 40.9375 10.546875 
Q 45.796875 14.203125 45.796875 21.1875 
Q 45.796875 27.640625 41.28125 31.265625 
Q 36.765625 34.90625 28.71875 34.90625 
L 20.21875 34.90625 
L 20.21875 43.015625 
L 29.109375 43.015625 
Q 36.375 43.015625 40.234375 45.921875 
Q 44.09375 48.828125 44.09375 54.296875 
Q 44.09375 59.90625 40.109375 62.90625 
Q 36.140625 65.921875 28.71875 65.921875 
Q 24.65625 65.921875 20.015625 65.03125 
Q 15.375 64.15625 9.8125 62.3125 
L 9.8125 71.09375 
Q 15.4375 72.65625 20.34375 73.4375 
Q 25.25 74.21875 29.59375 74.21875 
Q 40.828125 74.21875 47.359375 69.109375 
Q 53.90625 64.015625 53.90625 55.328125 
Q 53.90625 49.265625 50.4375 45.09375 
Q 46.96875 40.921875 40.578125 39.3125 
" id="BitstreamVeraSans-Roman-33"/>
      </defs>
      <g transform="translate(445.086696429 400.298125)scale(0.12 -0.12)">
       <use xlink:href="#BitstreamVeraSans-Roman-33"/>
       <use x="63.623046875" xlink:href="#BitstreamVeraSans-Roman-2e"/>
       <use x="95.41015625" xlink:href="#BitstreamVeraSans-Roman-30"/>
      </g>
     </g>
    </g>
    <g id="xtick_8">
     <g id="line2d_17">
      <g>
       <use style="stroke:#000000;stroke-width:0.5;" x="518.4" xlink:href="#m88ee6e66c5" y="387.18"/>
      </g>
     </g>
     <g id="line2d_18">
      <g>
       <use style="stroke:#000000;stroke-width:0.5;" x="518.4" xlink:href="#m0f29803129" y="43.02"/>
      </g>
     </g>
     <g id="text_8">
      <!-- 3.5 -->
      <g transform="translate(508.858125 400.298125)scale(0.12 -0.12)">
       <use xlink:href="#BitstreamVeraSans-Roman-33"/>
       <use x="63.623046875" xlink:href="#BitstreamVeraSans-Roman-2e"/>
       <use x="95.41015625" xlink:href="#BitstreamVeraSans-Roman-35"/>
      </g>
     </g>
    </g>
   </g>
   <g id="matplotlib.axis_2">
    <g id="ytick_1">
     <g id="line2d_19">
      <defs>
       <path d="M 0 0 
L 4 0 
" id="m21d48d3b6b" style="stroke:#000000;stroke-width:0.5;"/>
      </defs>
      <g>
       <use style="stroke:#000000;stroke-width:0.5;" x="72.0" xlink:href="#m21d48d3b6b" y="387.18"/>
      </g>
     </g>
     <g id="line2d_20">
      <defs>
       <path d="M 0 0 
L -4 0 
" id="m0d1851bbb5" style="stroke:#000000;stroke-width:0.5;"/>
      </defs>
      <g>
       <use style="stroke:#000000;stroke-width:0.5;" x="518.4" xlink:href="#m0d1851bbb5" y="387.18"/>
      </g>
     </g>
     <g id="text_9">
      <!-- 0.0 -->
      <g transform="translate(48.91625 390.49125)scale(0.12 -0.12)">
       <use xlink:href="#BitstreamVeraSans-Roman-30"/>
       <use x="63.623046875" xlink:href="#BitstreamVeraSans-Roman-2e"/>
       <use x="95.41015625" xlink:href="#BitstreamVeraSans-Roman-30"/>
      </g>
     </g>
    </g>
    <g id="ytick_2">
     <g id="line2d_21">
      <g>
       <use style="stroke:#000000;stroke-width:0.5;" x="72.0" xlink:href="#m21d48d3b6b" y="329.82"/>
      </g>
     </g>
     <g id="line2d_22">
      <g>
       <use style="stroke:#000000;stroke-width:0.5;" x="518.4" xlink:href="#m0d1851bbb5" y="329.82"/>
      </g>
     </g>
     <g id="text_10">
      <!-- 0.1 -->
      <g transform="translate(48.91625 333.13125)scale(0.12 -0.12)">
       <use xlink:href="#BitstreamVeraSans-Roman-30"/>
       <use x="63.623046875" xlink:href="#BitstreamVeraSans-Roman-2e"/>
       <use x="95.41015625" xlink:href="#BitstreamVeraSans-Roman-31"/>
      </g>
     </g>
    </g>
    <g id="ytick_3">
     <g id="line2d_23">
      <g>
       <use style="stroke:#000000;stroke-width:0.5;" x="72.0" xlink:href="#m21d48d3b6b" y="272.46"/>
      </g>
     </g>
     <g id="line2d_24">
      <g>
       <use style="stroke:#000000;stroke-width:0.5;" x="518.4" xlink:href="#m0d1851bbb5" y="272.46"/>
      </g>
     </g>
     <g id="text_11">
      <!-- 0.2 -->
      <g transform="translate(48.91625 275.77125)scale(0.12 -0.12)">
       <use xlink:href="#BitstreamVeraSans-Roman-30"/>
       <use x="63.623046875" xlink:href="#BitstreamVeraSans-Roman-2e"/>
       <use x="95.41015625" xlink:href="#BitstreamVeraSans-Roman-32"/>
      </g>
     </g>
    </g>
    <g id="ytick_4">
     <g id="line2d_25">
      <g>
       <use style="stroke:#000000;stroke-width:0.5;" x="72.0" xlink:href="#m21d48d3b6b" y="215.1"/>
      </g>
     </g>
     <g id="line2d_26">
      <g>
       <use style="stroke:#000000;stroke-width:0.5;" x="518.4" xlink:href="#m0d1851bbb5" y="215.1"/>
      </g>
     </g>
     <g id="text_12">
      <!-- 0.3 -->
      <g transform="translate(48.91625 218.41125)scale(0.12 -0.12)">
       <use xlink:href="#BitstreamVeraSans-Roman-30"/>
       <use x="63.623046875" xlink:href="#BitstreamVeraSans-Roman-2e"/>
       <use x="95.41015625" xlink:href="#BitstreamVeraSans-Roman-33"/>
      </g>
     </g>
    </g>
    <g id="ytick_5">
     <g id="line2d_27">
      <g>
       <use style="stroke:#000000;stroke-width:0.5;" x="72.0" xlink:href="#m21d48d3b6b" y="157.74"/>
      </g>
     </g>
     <g id="line2d_28">
      <g>
       <use style="stroke:#000000;stroke-width:0.5;" x="518.4" xlink:href="#m0d1851bbb5" y="157.74"/>
      </g>
     </g>
     <g id="text_13">
      <!-- 0.4 -->
      <defs>
       <path d="M 37.796875 64.3125 
L 12.890625 25.390625 
L 37.796875 25.390625 
z
M 35.203125 72.90625 
L 47.609375 72.90625 
L 47.609375 25.390625 
L 58.015625 25.390625 
L 58.015625 17.1875 
L 47.609375 17.1875 
L 47.609375 0 
L 37.796875 0 
L 37.796875 17.1875 
L 4.890625 17.1875 
L 4.890625 26.703125 
z
" id="BitstreamVeraSans-Roman-34"/>
      </defs>
      <g transform="translate(48.91625 161.05125)scale(0.12 -0.12)">
       <use xlink:href="#BitstreamVeraSans-Roman-30"/>
       <use x="63.623046875" xlink:href="#BitstreamVeraSans-Roman-2e"/>
       <use x="95.41015625" xlink:href="#BitstreamVeraSans-Roman-34"/>
      </g>
     </g>
    </g>
    <g id="ytick_6">
     <g id="line2d_29">
      <g>
       <use style="stroke:#000000;stroke-width:0.5;" x="72.0" xlink:href="#m21d48d3b6b" y="100.38"/>
      </g>
     </g>
     <g id="line2d_30">
      <g>
       <use style="stroke:#000000;stroke-width:0.5;" x="518.4" xlink:href="#m0d1851bbb5" y="100.38"/>
      </g>
     </g>
     <g id="text_14">
      <!-- 0.5 -->
      <g transform="translate(48.91625 103.69125)scale(0.12 -0.12)">
       <use xlink:href="#BitstreamVeraSans-Roman-30"/>
       <use x="63.623046875" xlink:href="#BitstreamVeraSans-Roman-2e"/>
       <use x="95.41015625" xlink:href="#BitstreamVeraSans-Roman-35"/>
      </g>
     </g>
    </g>
    <g id="ytick_7">
     <g id="line2d_31">
      <g>
       <use style="stroke:#000000;stroke-width:0.5;" x="72.0" xlink:href="#m21d48d3b6b" y="43.02"/>
      </g>
     </g>
     <g id="line2d_32">
      <g>
       <use style="stroke:#000000;stroke-width:0.5;" x="518.4" xlink:href="#m0d1851bbb5" y="43.02"/>
      </g>
     </g>
     <g id="text_15">
      <!-- 0.6 -->
      <defs>
       <path d="M 33.015625 40.375 
Q 26.375 40.375 22.484375 35.828125 
Q 18.609375 31.296875 18.609375 23.390625 
Q 18.609375 15.53125 22.484375 10.953125 
Q 26.375 6.390625 33.015625 6.390625 
Q 39.65625 6.390625 43.53125 10.953125 
Q 47.40625 15.53125 47.40625 23.390625 
Q 47.40625 31.296875 43.53125 35.828125 
Q 39.65625 40.375 33.015625 40.375 
M 52.59375 71.296875 
L 52.59375 62.3125 
Q 48.875 64.0625 45.09375 64.984375 
Q 41.3125 65.921875 37.59375 65.921875 
Q 27.828125 65.921875 22.671875 59.328125 
Q 17.53125 52.734375 16.796875 39.40625 
Q 19.671875 43.65625 24.015625 45.921875 
Q 28.375 48.1875 33.59375 48.1875 
Q 44.578125 48.1875 50.953125 41.515625 
Q 57.328125 34.859375 57.328125 23.390625 
Q 57.328125 12.15625 50.6875 5.359375 
Q 44.046875 -1.421875 33.015625 -1.421875 
Q 20.359375 -1.421875 13.671875 8.265625 
Q 6.984375 17.96875 6.984375 36.375 
Q 6.984375 53.65625 15.1875 63.9375 
Q 23.390625 74.21875 37.203125 74.21875 
Q 40.921875 74.21875 44.703125 73.484375 
Q 48.484375 72.75 52.59375 71.296875 
" id="BitstreamVeraSans-Roman-36"/>
      </defs>
      <g transform="translate(48.91625 46.33125)scale(0.12 -0.12)">
       <use xlink:href="#BitstreamVeraSans-Roman-30"/>
       <use x="63.623046875" xlink:href="#BitstreamVeraSans-Roman-2e"/>
       <use x="95.41015625" xlink:href="#BitstreamVeraSans-Roman-36"/>
      </g>
     </g>
    </g>
   </g>
  </g>
 </g>
 <defs>
  <clipPath id="pd01ff5b1a8">
   <rect height="344.16" width="446.4" x="72.0" y="43.02"/>
  </clipPath>
 </defs>
</svg>
