<?xml version="1.0" encoding="utf-8" standalone="no"?>
<!DOCTYPE svg PUBLIC "-//W3C//DTD SVG 1.1//EN"
  "http://www.w3.org/Graphics/SVG/1.1/DTD/svg11.dtd">
<!-- Created with matplotlib (http://matplotlib.org/) -->
<svg height="381pt" version="1.1" viewBox="0 0 818 381" width="818pt" xmlns="http://www.w3.org/2000/svg" xmlns:xlink="http://www.w3.org/1999/xlink">
 <defs>
  <style type="text/css">
*{stroke-linecap:butt;stroke-linejoin:round;stroke-miterlimit:100000;}
  </style>
 </defs>
 <g id="figure_1">
  <g id="patch_1">
   <path d="M 0 381.6 
L 818.1 381.6 
L 818.1 0 
L 0 0 
z
" style="fill:#ffffff;"/>
  </g>
  <g id="axes_1">
   <g id="patch_2">
    <path d="M 102.2625 343.44 
L 736.29 343.44 
L 736.29 38.16 
L 102.2625 38.16 
z
" style="fill:#ffffff;"/>
   </g>
   <g id="line2d_1">
    <path clip-path="url(#p7338b7ea91)" d="M 102.2625 343.44 
L 106.070473 328.610508 
L 109.878446 314.645458 
L 113.686419 301.494458 
L 117.494392 289.110057 
L 121.302365 277.447568 
L 125.110338 266.464909 
L 128.918311 256.122451 
L 132.726284 246.382877 
L 136.534257 237.211041 
L 140.34223 228.573851 
L 144.150203 220.44014 
L 147.958176 212.780559 
L 151.766149 205.567471 
L 155.574122 198.774849 
L 159.382095 192.378182 
L 163.190068 186.35439 
L 167.632703 179.768978 
L 172.075338 173.629211 
L 176.517973 167.904931 
L 180.960608 162.568022 
L 185.403243 157.59227 
L 189.845878 152.953234 
L 194.288514 148.628129 
L 198.731149 144.59571 
L 203.173784 140.836172 
L 208.251081 136.850064 
L 213.328378 133.170717 
L 218.405676 129.774524 
L 223.482973 126.639694 
L 228.56027 123.746113 
L 234.27223 120.756142 
L 239.984189 118.02376 
L 245.696149 115.526775 
L 252.04277 113.003827 
L 258.389392 110.721197 
L 265.370676 108.460617 
L 272.351959 106.435737 
L 279.967905 104.466781 
L 287.583851 102.720684 
L 295.834459 101.051383 
L 304.71973 99.480731 
L 314.239662 98.025072 
L 324.394257 96.695347 
L 335.818176 95.433131 
L 347.876757 94.325853 
L 361.204662 93.323728 
L 376.436554 92.408891 
L 393.572432 91.611047 
L 413.246959 90.925142 
L 436.094797 90.354745 
L 464.019932 89.886371 
L 499.561014 89.523184 
L 548.43 89.263548 
L 624.589459 89.107251 
L 736.29 89.05155 
L 736.29 89.05155 
" style="fill:none;stroke:#000000;stroke-linecap:square;"/>
   </g>
   <g id="line2d_2">
    <path clip-path="url(#p7338b7ea91)" d="M 102.2625 343.44 
L 102.896528 341.30304 
L 106.700693 325.8864 
L 107.33472 323.69856 
L 107.968748 320.74752 
L 108.602775 318.61056 
L 109.236802 317.13504 
L 109.87083 315.04896 
L 111.138885 310.46976 
L 114.309022 298.86912 
L 114.94305 297.08832 
L 115.577078 294.74784 
L 116.211105 293.27232 
L 116.845133 291.0336 
L 117.47916 288.2352 
L 118.747215 284.72448 
L 120.649298 279.94176 
L 122.55138 273.48 
L 123.185407 271.34304 
L 123.819435 270.27456 
L 125.721518 265.13568 
L 127.6236 260.30208 
L 130.793737 252.26304 
L 131.427765 250.0752 
L 132.061792 248.65056 
L 132.69582 246.92064 
L 133.329847 244.68192 
L 133.963875 242.90112 
L 134.597903 240.35712 
L 135.23193 238.6272 
L 135.865958 237.45696 
L 136.499985 235.26912 
L 137.76804 233.2848 
L 139.670122 228.96 
L 140.30415 227.89152 
L 144.742343 217.30848 
L 145.37637 216.08736 
L 146.010398 215.52768 
L 146.644425 214.30656 
L 147.278453 212.6784 
L 149.814563 208.608 
L 150.44859 207.336 
L 151.082617 206.52192 
L 152.350673 203.97792 
L 152.9847 202.34976 
L 153.618728 201.07776 
L 154.252755 200.11104 
L 154.886783 199.60224 
L 156.154838 197.16 
L 156.788865 196.44768 
L 157.422892 195.53184 
L 158.05692 194.81952 
L 159.324975 192.42816 
L 160.59303 190.85088 
L 161.861085 189.12096 
L 162.495113 188.71392 
L 163.12914 187.4928 
L 165.031223 184.79616 
L 166.933305 182.35392 
L 167.567333 180.8784 
L 168.20136 180.3696 
L 168.835388 179.19936 
L 169.469415 178.43616 
L 170.103443 177.41856 
L 170.73747 175.99392 
L 171.371498 174.92544 
L 172.639553 173.44992 
L 175.175663 169.6848 
L 177.077745 167.904 
L 177.711772 166.93728 
L 178.3458 166.42848 
L 178.979827 165.66528 
L 179.613855 165.1056 
L 180.247883 164.088 
L 180.88191 163.3248 
L 182.149965 161.23872 
L 183.41802 160.22112 
L 184.052048 160.11936 
L 184.686075 159.35616 
L 185.95413 157.32096 
L 186.588158 156.2016 
L 189.124268 154.21728 
L 189.758295 152.84352 
L 190.392323 152.74176 
L 191.660378 151.1136 
L 192.294405 150.75744 
L 192.928432 150.14688 
L 193.56246 149.18016 
L 194.830515 149.0784 
L 195.464542 148.5696 
L 196.09857 148.72224 
L 196.732597 148.41696 
L 197.366625 147.50112 
L 198.000653 146.38176 
L 199.268708 144.85536 
L 199.902735 143.53248 
L 200.536763 143.32896 
L 201.17079 142.9728 
L 201.804818 142.2096 
L 202.438845 141.75168 
L 203.072873 141.64992 
L 204.340928 139.86912 
L 204.974955 138.80064 
L 206.24301 137.73216 
L 206.877038 137.47776 
L 207.511065 136.76544 
L 208.145093 136.91808 
L 208.77912 136.76544 
L 210.681203 135.28992 
L 211.949258 134.37408 
L 212.583285 134.0688 
L 213.217312 133.0512 
L 213.85134 132.89856 
L 215.119395 131.11776 
L 215.753422 131.06688 
L 216.38745 130.81248 
L 217.021478 130.40544 
L 218.289533 128.9808 
L 218.92356 129.03168 
L 219.557588 128.77728 
L 220.191615 128.87904 
L 220.825643 128.77728 
L 221.45967 128.52288 
L 222.093698 128.57376 
L 222.727725 128.01408 
L 223.99578 128.01408 
L 224.629808 127.40352 
L 225.263835 126.4368 
L 227.165918 126.08064 
L 227.799945 125.57184 
L 228.433973 124.29984 
L 229.068 124.45248 
L 230.336055 123.1296 
L 230.970083 122.92608 
L 231.60411 122.06112 
L 232.238137 120.99264 
L 233.506192 121.19616 
L 234.774248 120.02592 
L 235.408275 119.568 
L 236.042303 119.26272 
L 236.67633 118.75392 
L 237.310358 118.85568 
L 237.944385 118.44864 
L 238.578413 118.24512 
L 239.21244 117.38016 
L 239.846468 116.87136 
L 240.480495 116.92224 
L 241.114523 116.41344 
L 241.74855 116.05728 
L 243.016605 115.752 
L 243.650633 114.9888 
L 244.28466 115.2432 
L 244.918688 115.34496 
L 246.186743 115.03968 
L 246.82077 114.58176 
L 247.454798 114.63264 
L 248.088825 114.27648 
L 249.35688 112.9536 
L 250.624935 113.05536 
L 251.258962 113.36064 
L 251.89299 113.25888 
L 252.527017 113.36064 
L 253.161045 113.208 
L 253.795073 112.34304 
L 254.4291 111.88512 
L 255.063128 112.13952 
L 256.96521 110.00256 
L 258.867293 109.49376 
L 259.50132 108.73056 
L 260.769375 108.47616 
L 261.403403 109.49376 
L 262.03743 109.08672 
L 262.671458 109.03584 
L 263.305485 109.1376 
L 263.939512 108.98496 
L 264.57354 108.6288 
L 265.207568 108.52704 
L 265.841595 108.17088 
L 266.475622 108.47616 
L 267.10965 108.57792 
L 267.743678 108.47616 
L 268.377705 108.8832 
L 269.011732 108.57792 
L 269.64576 108.78144 
L 270.279788 108.67968 
L 270.913815 108.27264 
L 271.547843 108.73056 
L 272.18187 108.52704 
L 272.815898 108.6288 
L 274.083953 107.81472 
L 275.986035 108.17088 
L 276.620063 108.06912 
L 277.25409 108.22176 
L 277.888118 107.8656 
L 278.522145 107.15328 
L 279.156173 106.13568 
L 279.7902 105.98304 
L 280.424228 105.47424 
L 281.058255 105.47424 
L 282.32631 105.88128 
L 282.960337 105.67776 
L 284.228392 104.86368 
L 285.496447 104.8128 
L 286.130475 104.25312 
L 286.764502 104.60928 
L 287.39853 104.45664 
L 288.032557 104.86368 
L 288.666585 104.304 
L 289.300612 104.20224 
L 289.93464 103.89696 
L 290.568668 103.7952 
L 291.202695 103.48992 
L 292.47075 103.33728 
L 293.104778 103.032 
L 293.738805 103.33728 
L 294.372833 103.08288 
L 295.00686 102.98112 
L 295.640888 103.08288 
L 296.274915 103.032 
L 296.908943 103.23552 
L 297.54297 103.84608 
L 298.176998 103.99872 
L 299.445053 102.98112 
L 301.347135 103.23552 
L 301.981163 103.18464 
L 302.61519 102.72672 
L 305.1513 101.76 
L 306.419355 101.86176 
L 307.053382 101.45472 
L 307.68741 100.64064 
L 308.321438 100.89504 
L 308.955465 100.69152 
L 310.22352 101.09856 
L 310.857548 100.53888 
L 312.125603 100.69152 
L 313.393658 100.58976 
L 314.027685 100.13184 
L 314.661713 100.13184 
L 315.29574 99.62304 
L 315.929768 99.7248 
L 316.563795 99.06336 
L 317.197823 99.62304 
L 317.83185 99.9792 
L 318.465878 99.82656 
L 319.099905 99.26688 
L 319.733933 99.01248 
L 320.36796 98.55456 
L 321.001987 98.85984 
L 321.636015 98.4528 
L 322.270042 98.50368 
L 322.90407 98.14752 
L 323.538097 98.24928 
L 324.172125 98.85984 
L 324.806152 98.50368 
L 326.074207 98.60544 
L 326.708235 98.60544 
L 327.342263 97.944 
L 327.97629 97.79136 
L 328.610318 97.33344 
L 329.244345 97.89312 
L 329.878373 97.48608 
L 330.5124 97.53696 
L 331.146428 97.38432 
L 331.780455 97.84224 
L 332.414483 97.99488 
L 333.04851 97.74048 
L 333.682538 98.14752 
L 334.316565 97.53696 
L 335.58462 97.74048 
L 336.218648 97.6896 
L 336.852675 97.84224 
L 337.486703 97.58784 
L 338.754758 97.63872 
L 339.388785 97.58784 
L 340.022813 97.944 
L 340.65684 97.6896 
L 341.290868 96.87552 
L 341.924895 97.12992 
L 343.19295 96.46848 
L 344.461005 96.46848 
L 345.095033 96.62112 
L 345.72906 96.4176 
L 346.363088 96.672 
L 346.997115 96.31584 
L 347.631143 96.82464 
L 348.26517 96.672 
L 348.899198 96.77376 
L 349.533225 96.46848 
L 350.167253 96.01056 
L 350.80128 96.36672 
L 351.435308 96.4176 
L 352.069335 96.72288 
L 352.703363 96.26496 
L 353.33739 96.11232 
L 353.971418 95.55264 
L 354.605445 95.60352 
L 355.239473 95.19648 
L 356.507527 95.04384 
L 357.141555 94.43328 
L 358.40961 95.09472 
L 359.043638 95.24736 
L 359.677665 94.8912 
L 360.311692 95.4 
L 360.94572 95.09472 
L 361.579747 95.09472 
L 362.213775 94.73856 
L 362.847802 93.8736 
L 363.48183 94.28064 
L 364.115858 94.128 
L 364.749885 94.17888 
L 365.383912 94.07712 
L 366.651968 93.16128 
L 367.285995 93.6192 
L 367.920022 94.53504 
L 368.55405 94.3824 
L 369.822105 95.19648 
L 370.456132 95.45088 
L 371.09016 95.1456 
L 372.358215 95.45088 
L 374.260298 93.97536 
L 374.894325 93.3648 
L 375.528352 93.1104 
L 376.16238 93.00864 
L 376.796407 93.21216 
L 377.430435 92.90688 
L 378.064462 92.90688 
L 378.69849 93.3648 
L 379.966545 92.75424 
L 380.600572 92.04192 
L 381.2346 92.04192 
L 381.868628 91.43136 
L 382.502655 91.53312 
L 383.136683 91.22784 
L 384.404738 91.73664 
L 385.038765 91.584 
L 385.672793 91.17696 
L 386.30682 91.38048 
L 386.940848 91.73664 
L 387.574875 91.63488 
L 388.208903 91.94016 
L 388.84293 91.94016 
L 389.476958 91.53312 
L 390.110985 91.78752 
L 391.37904 91.68576 
L 393.281122 91.63488 
L 393.91515 91.99104 
L 394.549178 91.88928 
L 395.183205 91.53312 
L 395.817232 91.63488 
L 396.45126 91.43136 
L 397.085288 91.53312 
L 397.719315 91.38048 
L 398.353342 91.38048 
L 399.621398 90.66816 
L 400.255425 90.76992 
L 400.889453 91.02432 
L 401.52348 91.43136 
L 402.157508 90.87168 
L 402.791535 91.43136 
L 404.05959 91.53312 
L 404.693617 91.12608 
L 405.327645 90.92256 
L 405.961673 91.68576 
L 406.5957 91.68576 
L 407.229727 91.43136 
L 407.863755 91.43136 
L 408.497783 91.27872 
L 409.13181 91.73664 
L 409.765837 91.8384 
L 411.033893 91.43136 
L 411.66792 91.22784 
L 412.301947 90.8208 
L 412.935975 90.71904 
L 413.570003 91.12608 
L 414.20403 90.97344 
L 414.838057 90.51552 
L 415.472085 90.71904 
L 416.74014 89.90496 
L 417.374167 89.8032 
L 418.008195 90.00672 
L 418.642223 89.59968 
L 419.910278 89.14176 
L 420.544305 89.09088 
L 421.178333 89.59968 
L 421.81236 89.59968 
L 422.446388 88.98912 
L 423.714443 89.44704 
L 424.34847 89.19264 
L 424.982498 89.44704 
L 425.616525 88.83648 
L 426.250553 88.73472 
L 426.88458 88.42944 
L 427.518608 88.48032 
L 428.152635 88.68384 
L 428.786663 88.37856 
L 430.688745 88.68384 
L 431.322773 87.768 
L 431.9568 88.17504 
L 432.590827 87.86976 
L 433.858883 87.86976 
L 434.49291 87.5136 
L 435.760965 87.36096 
L 436.394993 87.05568 
L 437.02902 87.05568 
L 437.663048 86.44512 
L 438.931103 87.05568 
L 439.56513 86.2416 
L 440.199158 85.83456 
L 440.833185 85.78368 
L 441.467213 85.4784 
L 442.10124 86.13984 
L 442.735268 86.34336 
L 444.003323 86.2416 
L 444.63735 85.63104 
L 445.271378 85.32576 
L 445.905405 85.37664 
L 446.539433 85.68192 
L 447.17346 86.13984 
L 447.807488 86.13984 
L 448.441515 85.88544 
L 449.075543 86.29248 
L 449.70957 86.44512 
L 450.343598 87.20832 
L 450.977625 86.90304 
L 451.611653 86.80128 
L 452.24568 86.54688 
L 452.879708 86.496 
L 453.513735 86.08896 
L 454.147763 86.34336 
L 454.78179 86.80128 
L 455.415818 86.69952 
L 456.049845 86.29248 
L 456.683873 86.34336 
L 457.3179 86.69952 
L 457.951928 87.46272 
L 458.585955 87.41184 
L 459.219982 87.61536 
L 459.85401 87.61536 
L 460.488037 87.86976 
L 461.122065 87.86976 
L 461.756093 87.41184 
L 462.39012 87.15744 
L 463.024147 87.36096 
L 463.658175 87.41184 
L 464.292202 87.2592 
L 466.194285 88.93824 
L 467.46234 88.2768 
L 468.096367 88.7856 
L 468.730395 88.48032 
L 469.364422 87.86976 
L 469.99845 87.46272 
L 470.632477 87.71712 
L 471.900532 88.0224 
L 472.53456 88.37856 
L 473.168588 88.22592 
L 473.802615 88.2768 
L 474.436642 88.0224 
L 475.07067 88.48032 
L 475.704698 88.0224 
L 476.338725 88.32768 
L 476.972753 87.46272 
L 477.60678 87.36096 
L 479.508862 87.92064 
L 480.14289 87.81888 
L 481.410945 88.17504 
L 482.044973 88.58208 
L 482.679 88.68384 
L 483.313027 87.92064 
L 485.849137 87.97152 
L 487.117193 88.2768 
L 487.75122 88.0224 
L 489.019275 88.12416 
L 489.653302 87.81888 
L 490.28733 87.20832 
L 490.921357 86.95392 
L 492.189413 88.07328 
L 492.82344 87.71712 
L 494.091495 88.83648 
L 494.725523 89.04 
L 495.35955 89.5488 
L 495.993578 89.2944 
L 497.261633 89.59968 
L 497.89566 90.21024 
L 499.163715 90.10848 
L 500.43177 90.61728 
L 501.065798 90.10848 
L 501.699825 90.10848 
L 502.333853 90.41376 
L 502.96788 90.0576 
L 503.601908 90.36288 
L 504.235935 90.312 
L 504.869962 90.97344 
L 505.50399 90.76992 
L 506.138018 91.22784 
L 506.772045 90.71904 
L 507.406073 90.76992 
L 508.0401 91.0752 
L 509.308155 90.312 
L 509.942183 89.09088 
L 512.478293 88.42944 
L 513.11232 88.7856 
L 513.746348 88.83648 
L 515.64843 88.48032 
L 516.282458 88.83648 
L 517.550513 88.58208 
L 518.18454 88.98912 
L 518.818568 89.04 
L 519.452595 89.24352 
L 520.086623 89.59968 
L 520.72065 89.75232 
L 521.354678 89.65056 
L 521.988705 90.0576 
L 522.622733 90.0576 
L 523.890788 90.41376 
L 524.524815 90.0576 
L 525.79287 91.38048 
L 526.426898 91.53312 
L 527.060925 91.12608 
L 527.694953 90.92256 
L 528.32898 90.97344 
L 528.963008 90.61728 
L 530.231063 90.312 
L 530.86509 90.312 
L 531.499118 90.8208 
L 532.133145 91.12608 
L 532.767173 91.584 
L 533.4012 91.68576 
L 534.035228 91.43136 
L 534.669255 91.3296 
L 535.303283 91.43136 
L 535.93731 91.38048 
L 536.571338 91.8384 
L 537.205365 91.68576 
L 538.47342 91.99104 
L 539.107448 92.14368 
L 539.741475 91.73664 
L 541.00953 92.55072 
L 541.643558 91.99104 
L 542.911613 92.14368 
L 543.54564 92.04192 
L 544.179668 92.19456 
L 545.447723 92.0928 
L 546.08175 91.88928 
L 547.349805 92.04192 
L 547.983833 91.99104 
L 549.251888 91.584 
L 549.885915 92.19456 
L 551.15397 93.97536 
L 551.787998 93.77184 
L 553.056052 93.05952 
L 553.69008 93.6192 
L 554.324108 92.95776 
L 555.592162 92.75424 
L 556.860218 92.55072 
L 557.494245 92.95776 
L 558.128272 93.21216 
L 558.7623 93.21216 
L 559.396328 93.46656 
L 560.030355 93.21216 
L 560.664382 92.65248 
L 561.29841 92.55072 
L 561.932438 92.856 
L 563.200492 91.94016 
L 563.83452 91.88928 
L 564.468547 91.38048 
L 565.102575 91.43136 
L 565.736603 91.3296 
L 566.37063 91.584 
L 567.004658 92.29632 
L 567.638685 91.584 
L 568.272713 91.63488 
L 568.90674 92.04192 
L 569.540768 91.48224 
L 570.174795 91.73664 
L 570.808823 91.53312 
L 571.44285 91.17696 
L 572.076878 91.53312 
L 572.710905 91.68576 
L 573.344933 92.04192 
L 574.612988 91.53312 
L 575.247015 91.99104 
L 576.51507 92.39808 
L 577.149098 92.0928 
L 578.417153 92.24544 
L 579.05118 91.88928 
L 579.685208 91.78752 
L 580.319235 91.22784 
L 580.953263 90.97344 
L 581.58729 90.36288 
L 582.855345 91.12608 
L 583.489373 90.92256 
L 584.1234 91.12608 
L 586.025483 90.8208 
L 586.65951 90.15936 
L 587.293538 90.21024 
L 587.927565 90.00672 
L 588.561593 90.36288 
L 589.19562 90.00672 
L 589.829648 90.26112 
L 590.463675 90.312 
L 591.097703 90.00672 
L 591.73173 89.85408 
L 592.365758 89.39616 
L 592.999785 89.19264 
L 593.633813 89.24352 
L 594.26784 88.98912 
L 594.901868 89.24352 
L 595.535895 88.93824 
L 596.80395 88.7856 
L 598.072005 89.2944 
L 598.706033 89.24352 
L 599.34006 89.49792 
L 599.974088 89.59968 
L 600.608115 89.19264 
L 601.242143 88.98912 
L 601.87617 89.04 
L 602.510198 89.2944 
L 603.144225 88.88736 
L 605.046308 88.7856 
L 605.680335 88.37856 
L 606.314363 88.42944 
L 606.94839 88.68384 
L 607.582418 88.12416 
L 608.850473 87.46272 
L 609.4845 86.85216 
L 610.118528 86.44512 
L 610.752555 86.39424 
L 611.386583 86.19072 
L 612.654638 87.15744 
L 613.288665 87.0048 
L 613.922693 87.20832 
L 614.55672 86.69952 
L 615.190748 86.7504 
L 615.824775 86.34336 
L 616.458803 86.19072 
L 617.09283 86.34336 
L 617.726858 86.69952 
L 618.360885 86.496 
L 619.62894 86.29248 
L 620.262968 86.19072 
L 621.531023 87.10656 
L 622.799078 87.15744 
L 623.433105 87.61536 
L 624.067133 87.71712 
L 624.70116 87.66624 
L 625.335188 87.92064 
L 626.603243 88.22592 
L 627.23727 87.66624 
L 627.871298 87.56448 
L 628.505325 88.2768 
L 629.139352 88.48032 
L 629.77338 88.12416 
L 630.407408 89.09088 
L 631.675463 87.56448 
L 632.30949 88.17504 
L 632.943517 87.66624 
L 633.577545 88.17504 
L 634.8456 87.81888 
L 635.479628 87.2592 
L 636.113655 87.36096 
L 636.747683 86.59776 
L 637.38171 86.59776 
L 638.015738 87.05568 
L 638.649765 86.90304 
L 639.91782 87.05568 
L 640.551848 87.20832 
L 641.185875 87.61536 
L 641.819903 87.0048 
L 643.721985 86.44512 
L 644.356013 86.85216 
L 644.99004 86.7504 
L 645.624068 86.44512 
L 646.892123 86.64864 
L 648.160178 86.90304 
L 650.696288 85.83456 
L 651.330315 85.37664 
L 653.866425 85.32576 
L 654.500453 85.17312 
L 655.13448 85.4784 
L 655.768508 84.9696 
L 656.402535 84.00288 
L 657.036563 84.25728 
L 657.67059 84.10464 
L 658.304618 84.4608 
L 658.938645 83.90112 
L 660.2067 83.79936 
L 660.840728 83.74848 
L 661.474755 84.05376 
L 662.108783 83.74848 
L 665.27892 84.76608 
L 665.912948 84.81696 
L 666.546975 85.12224 
L 667.181003 85.07136 
L 667.81503 85.224 
L 668.449058 84.86784 
L 669.717113 84.81696 
L 670.35114 85.27488 
L 671.619195 84.76608 
L 672.253223 85.37664 
L 672.88725 84.56256 
L 673.521278 84.66432 
L 674.155305 84.40992 
L 674.789333 84.56256 
L 675.42336 84.4608 
L 676.691415 84.66432 
L 677.95947 85.4784 
L 678.593498 85.02048 
L 679.861553 85.32576 
L 681.129608 85.224 
L 681.763635 85.224 
L 682.397663 85.07136 
L 683.03169 84.76608 
L 683.665718 84.66432 
L 684.299745 84.25728 
L 684.933773 84.81696 
L 685.5678 84.91872 
L 686.201828 85.52928 
L 686.835855 85.63104 
L 687.469883 86.59776 
L 688.10391 85.9872 
L 688.737938 86.08896 
L 690.005993 86.59776 
L 690.64002 87.2592 
L 691.274048 87.5136 
L 692.542103 87.36096 
L 693.17613 86.95392 
L 693.810158 87.20832 
L 694.444185 86.64864 
L 695.078213 86.7504 
L 695.71224 86.13984 
L 696.980295 85.58016 
L 697.614322 85.4784 
L 699.516405 86.29248 
L 700.150433 86.95392 
L 700.78446 86.90304 
L 701.418488 87.2592 
L 702.686542 86.90304 
L 703.32057 87.46272 
L 703.954598 87.46272 
L 704.588625 86.80128 
L 705.222653 86.90304 
L 705.85668 87.41184 
L 707.758762 87.86976 
L 708.39279 87.56448 
L 709.026818 87.71712 
L 709.660845 88.2768 
L 710.294873 87.61536 
L 710.9289 87.768 
L 711.562928 87.20832 
L 712.196955 87.10656 
L 712.830983 86.85216 
L 713.46501 87.10656 
L 714.099038 86.496 
L 715.367093 87.56448 
L 716.00112 87.56448 
L 716.635148 87.31008 
L 717.269175 86.54688 
L 717.903203 86.7504 
L 718.53723 87.15744 
L 719.171258 87.10656 
L 719.805285 87.41184 
L 720.439313 87.56448 
L 721.07334 87.56448 
L 721.707368 87.86976 
L 722.975423 87.71712 
L 724.243478 88.07328 
L 724.877505 87.31008 
L 725.511533 87.56448 
L 726.14556 87.56448 
L 726.779588 88.22592 
L 727.413615 88.37856 
L 728.047643 88.7856 
L 728.68167 88.98912 
L 729.315698 88.7856 
L 730.583753 88.88736 
L 731.21778 89.14176 
L 731.851808 88.98912 
L 732.485835 89.34528 
L 733.75389 89.75232 
L 734.387918 89.59968 
L 735.021945 90.5664 
L 735.655973 90.41376 
L 735.655973 90.41376 
" style="fill:none;stroke:#ff0000;stroke-linecap:square;"/>
   </g>
   <g id="patch_3">
    <path d="M 102.2625 343.44 
L 736.29 343.44 
" style="fill:none;stroke:#000000;stroke-linecap:square;stroke-linejoin:miter;"/>
   </g>
   <g id="patch_4">
    <path d="M 736.29 343.44 
L 736.29 38.16 
" style="fill:none;stroke:#000000;stroke-linecap:square;stroke-linejoin:miter;"/>
   </g>
   <g id="patch_5">
    <path d="M 102.2625 38.16 
L 736.29 38.16 
" style="fill:none;stroke:#000000;stroke-linecap:square;stroke-linejoin:miter;"/>
   </g>
   <g id="patch_6">
    <path d="M 102.2625 343.44 
L 102.2625 38.16 
" style="fill:none;stroke:#000000;stroke-linecap:square;stroke-linejoin:miter;"/>
   </g>
   <g id="matplotlib.axis_1">
    <g id="xtick_1">
     <g id="line2d_3">
      <defs>
       <path d="M 0 0 
L 0 -4 
" id="mdae7bffcdb" style="stroke:#000000;stroke-width:0.5;"/>
      </defs>
      <g>
       <use style="stroke:#000000;stroke-width:0.5;" x="102.2625" xlink:href="#mdae7bffcdb" y="343.44"/>
      </g>
     </g>
     <g id="line2d_4">
      <defs>
       <path d="M 0 0 
L 0 4 
" id="mb7eeb2a85b" style="stroke:#000000;stroke-width:0.5;"/>
      </defs>
      <g>
       <use style="stroke:#000000;stroke-width:0.5;" x="102.2625" xlink:href="#mb7eeb2a85b" y="38.16"/>
      </g>
     </g>
     <g id="text_1">
      <!-- 0 -->
      <defs>
       <path d="M 31.78125 66.40625 
Q 24.171875 66.40625 20.328125 58.90625 
Q 16.5 51.421875 16.5 36.375 
Q 16.5 21.390625 20.328125 13.890625 
Q 24.171875 6.390625 31.78125 6.390625 
Q 39.453125 6.390625 43.28125 13.890625 
Q 47.125 21.390625 47.125 36.375 
Q 47.125 51.421875 43.28125 58.90625 
Q 39.453125 66.40625 31.78125 66.40625 
M 31.78125 74.21875 
Q 44.046875 74.21875 50.515625 64.515625 
Q 56.984375 54.828125 56.984375 36.375 
Q 56.984375 17.96875 50.515625 8.265625 
Q 44.046875 -1.421875 31.78125 -1.421875 
Q 19.53125 -1.421875 13.0625 8.265625 
Q 6.59375 17.96875 6.59375 36.375 
Q 6.59375 54.828125 13.0625 64.515625 
Q 19.53125 74.21875 31.78125 74.21875 
" id="BitstreamVeraSans-Roman-30"/>
      </defs>
      <g transform="translate(98.445 356.558125)scale(0.12 -0.12)">
       <use xlink:href="#BitstreamVeraSans-Roman-30"/>
      </g>
     </g>
    </g>
    <g id="xtick_2">
     <g id="line2d_5">
      <g>
       <use style="stroke:#000000;stroke-width:0.5;" x="229.068" xlink:href="#mdae7bffcdb" y="343.44"/>
      </g>
     </g>
     <g id="line2d_6">
      <g>
       <use style="stroke:#000000;stroke-width:0.5;" x="229.068" xlink:href="#mb7eeb2a85b" y="38.16"/>
      </g>
     </g>
     <g id="text_2">
      <!-- 1 -->
      <defs>
       <path d="M 12.40625 8.296875 
L 28.515625 8.296875 
L 28.515625 63.921875 
L 10.984375 60.40625 
L 10.984375 69.390625 
L 28.421875 72.90625 
L 38.28125 72.90625 
L 38.28125 8.296875 
L 54.390625 8.296875 
L 54.390625 0 
L 12.40625 0 
z
" id="BitstreamVeraSans-Roman-31"/>
      </defs>
      <g transform="translate(225.2505 356.558125)scale(0.12 -0.12)">
       <use xlink:href="#BitstreamVeraSans-Roman-31"/>
      </g>
     </g>
    </g>
    <g id="xtick_3">
     <g id="line2d_7">
      <g>
       <use style="stroke:#000000;stroke-width:0.5;" x="355.8735" xlink:href="#mdae7bffcdb" y="343.44"/>
      </g>
     </g>
     <g id="line2d_8">
      <g>
       <use style="stroke:#000000;stroke-width:0.5;" x="355.8735" xlink:href="#mb7eeb2a85b" y="38.16"/>
      </g>
     </g>
     <g id="text_3">
      <!-- 2 -->
      <defs>
       <path d="M 19.1875 8.296875 
L 53.609375 8.296875 
L 53.609375 0 
L 7.328125 0 
L 7.328125 8.296875 
Q 12.9375 14.109375 22.625 23.890625 
Q 32.328125 33.6875 34.8125 36.53125 
Q 39.546875 41.84375 41.421875 45.53125 
Q 43.3125 49.21875 43.3125 52.78125 
Q 43.3125 58.59375 39.234375 62.25 
Q 35.15625 65.921875 28.609375 65.921875 
Q 23.96875 65.921875 18.8125 64.3125 
Q 13.671875 62.703125 7.8125 59.421875 
L 7.8125 69.390625 
Q 13.765625 71.78125 18.9375 73 
Q 24.125 74.21875 28.421875 74.21875 
Q 39.75 74.21875 46.484375 68.546875 
Q 53.21875 62.890625 53.21875 53.421875 
Q 53.21875 48.921875 51.53125 44.890625 
Q 49.859375 40.875 45.40625 35.40625 
Q 44.1875 33.984375 37.640625 27.21875 
Q 31.109375 20.453125 19.1875 8.296875 
" id="BitstreamVeraSans-Roman-32"/>
      </defs>
      <g transform="translate(352.056 356.558125)scale(0.12 -0.12)">
       <use xlink:href="#BitstreamVeraSans-Roman-32"/>
      </g>
     </g>
    </g>
    <g id="xtick_4">
     <g id="line2d_9">
      <g>
       <use style="stroke:#000000;stroke-width:0.5;" x="482.679" xlink:href="#mdae7bffcdb" y="343.44"/>
      </g>
     </g>
     <g id="line2d_10">
      <g>
       <use style="stroke:#000000;stroke-width:0.5;" x="482.679" xlink:href="#mb7eeb2a85b" y="38.16"/>
      </g>
     </g>
     <g id="text_4">
      <!-- 3 -->
      <defs>
       <path d="M 40.578125 39.3125 
Q 47.65625 37.796875 51.625 33 
Q 55.609375 28.21875 55.609375 21.1875 
Q 55.609375 10.40625 48.1875 4.484375 
Q 40.765625 -1.421875 27.09375 -1.421875 
Q 22.515625 -1.421875 17.65625 -0.515625 
Q 12.796875 0.390625 7.625 2.203125 
L 7.625 11.71875 
Q 11.71875 9.328125 16.59375 8.109375 
Q 21.484375 6.890625 26.8125 6.890625 
Q 36.078125 6.890625 40.9375 10.546875 
Q 45.796875 14.203125 45.796875 21.1875 
Q 45.796875 27.640625 41.28125 31.265625 
Q 36.765625 34.90625 28.71875 34.90625 
L 20.21875 34.90625 
L 20.21875 43.015625 
L 29.109375 43.015625 
Q 36.375 43.015625 40.234375 45.921875 
Q 44.09375 48.828125 44.09375 54.296875 
Q 44.09375 59.90625 40.109375 62.90625 
Q 36.140625 65.921875 28.71875 65.921875 
Q 24.65625 65.921875 20.015625 65.03125 
Q 15.375 64.15625 9.8125 62.3125 
L 9.8125 71.09375 
Q 15.4375 72.65625 20.34375 73.4375 
Q 25.25 74.21875 29.59375 74.21875 
Q 40.828125 74.21875 47.359375 69.109375 
Q 53.90625 64.015625 53.90625 55.328125 
Q 53.90625 49.265625 50.4375 45.09375 
Q 46.96875 40.921875 40.578125 39.3125 
" id="BitstreamVeraSans-Roman-33"/>
      </defs>
      <g transform="translate(478.8615 356.558125)scale(0.12 -0.12)">
       <use xlink:href="#BitstreamVeraSans-Roman-33"/>
      </g>
     </g>
    </g>
    <g id="xtick_5">
     <g id="line2d_11">
      <g>
       <use style="stroke:#000000;stroke-width:0.5;" x="609.4845" xlink:href="#mdae7bffcdb" y="343.44"/>
      </g>
     </g>
     <g id="line2d_12">
      <g>
       <use style="stroke:#000000;stroke-width:0.5;" x="609.4845" xlink:href="#mb7eeb2a85b" y="38.16"/>
      </g>
     </g>
     <g id="text_5">
      <!-- 4 -->
      <defs>
       <path d="M 37.796875 64.3125 
L 12.890625 25.390625 
L 37.796875 25.390625 
z
M 35.203125 72.90625 
L 47.609375 72.90625 
L 47.609375 25.390625 
L 58.015625 25.390625 
L 58.015625 17.1875 
L 47.609375 17.1875 
L 47.609375 0 
L 37.796875 0 
L 37.796875 17.1875 
L 4.890625 17.1875 
L 4.890625 26.703125 
z
" id="BitstreamVeraSans-Roman-34"/>
      </defs>
      <g transform="translate(605.667 356.558125)scale(0.12 -0.12)">
       <use xlink:href="#BitstreamVeraSans-Roman-34"/>
      </g>
     </g>
    </g>
    <g id="xtick_6">
     <g id="line2d_13">
      <g>
       <use style="stroke:#000000;stroke-width:0.5;" x="736.29" xlink:href="#mdae7bffcdb" y="343.44"/>
      </g>
     </g>
     <g id="line2d_14">
      <g>
       <use style="stroke:#000000;stroke-width:0.5;" x="736.29" xlink:href="#mb7eeb2a85b" y="38.16"/>
      </g>
     </g>
     <g id="text_6">
      <!-- 5 -->
      <defs>
       <path d="M 10.796875 72.90625 
L 49.515625 72.90625 
L 49.515625 64.59375 
L 19.828125 64.59375 
L 19.828125 46.734375 
Q 21.96875 47.46875 24.109375 47.828125 
Q 26.265625 48.1875 28.421875 48.1875 
Q 40.625 48.1875 47.75 41.5 
Q 54.890625 34.8125 54.890625 23.390625 
Q 54.890625 11.625 47.5625 5.09375 
Q 40.234375 -1.421875 26.90625 -1.421875 
Q 22.3125 -1.421875 17.546875 -0.640625 
Q 12.796875 0.140625 7.71875 1.703125 
L 7.71875 11.625 
Q 12.109375 9.234375 16.796875 8.0625 
Q 21.484375 6.890625 26.703125 6.890625 
Q 35.15625 6.890625 40.078125 11.328125 
Q 45.015625 15.765625 45.015625 23.390625 
Q 45.015625 31 40.078125 35.4375 
Q 35.15625 39.890625 26.703125 39.890625 
Q 22.75 39.890625 18.8125 39.015625 
Q 14.890625 38.140625 10.796875 36.28125 
z
" id="BitstreamVeraSans-Roman-35"/>
      </defs>
      <g transform="translate(732.4725 356.558125)scale(0.12 -0.12)">
       <use xlink:href="#BitstreamVeraSans-Roman-35"/>
      </g>
     </g>
    </g>
   </g>
   <g id="matplotlib.axis_2">
    <g id="ytick_1">
     <g id="line2d_15">
      <defs>
       <path d="M 0 0 
L 4 0 
" id="m13becc3488" style="stroke:#000000;stroke-width:0.5;"/>
      </defs>
      <g>
       <use style="stroke:#000000;stroke-width:0.5;" x="102.2625" xlink:href="#m13becc3488" y="343.44"/>
      </g>
     </g>
     <g id="line2d_16">
      <defs>
       <path d="M 0 0 
L -4 0 
" id="m2b85910e63" style="stroke:#000000;stroke-width:0.5;"/>
      </defs>
      <g>
       <use style="stroke:#000000;stroke-width:0.5;" x="736.29" xlink:href="#m2b85910e63" y="343.44"/>
      </g>
     </g>
     <g id="text_7">
      <!-- 0.0 -->
      <defs>
       <path d="M 10.6875 12.40625 
L 21 12.40625 
L 21 0 
L 10.6875 0 
z
" id="BitstreamVeraSans-Roman-2e"/>
      </defs>
      <g transform="translate(79.17875 346.75125)scale(0.12 -0.12)">
       <use xlink:href="#BitstreamVeraSans-Roman-30"/>
       <use x="63.623046875" xlink:href="#BitstreamVeraSans-Roman-2e"/>
       <use x="95.41015625" xlink:href="#BitstreamVeraSans-Roman-30"/>
      </g>
     </g>
    </g>
    <g id="ytick_2">
     <g id="line2d_17">
      <g>
       <use style="stroke:#000000;stroke-width:0.5;" x="102.2625" xlink:href="#m13becc3488" y="292.56"/>
      </g>
     </g>
     <g id="line2d_18">
      <g>
       <use style="stroke:#000000;stroke-width:0.5;" x="736.29" xlink:href="#m2b85910e63" y="292.56"/>
      </g>
     </g>
     <g id="text_8">
      <!-- 0.1 -->
      <g transform="translate(79.17875 295.87125)scale(0.12 -0.12)">
       <use xlink:href="#BitstreamVeraSans-Roman-30"/>
       <use x="63.623046875" xlink:href="#BitstreamVeraSans-Roman-2e"/>
       <use x="95.41015625" xlink:href="#BitstreamVeraSans-Roman-31"/>
      </g>
     </g>
    </g>
    <g id="ytick_3">
     <g id="line2d_19">
      <g>
       <use style="stroke:#000000;stroke-width:0.5;" x="102.2625" xlink:href="#m13becc3488" y="241.68"/>
      </g>
     </g>
     <g id="line2d_20">
      <g>
       <use style="stroke:#000000;stroke-width:0.5;" x="736.29" xlink:href="#m2b85910e63" y="241.68"/>
      </g>
     </g>
     <g id="text_9">
      <!-- 0.2 -->
      <g transform="translate(79.17875 244.99125)scale(0.12 -0.12)">
       <use xlink:href="#BitstreamVeraSans-Roman-30"/>
       <use x="63.623046875" xlink:href="#BitstreamVeraSans-Roman-2e"/>
       <use x="95.41015625" xlink:href="#BitstreamVeraSans-Roman-32"/>
      </g>
     </g>
    </g>
    <g id="ytick_4">
     <g id="line2d_21">
      <g>
       <use style="stroke:#000000;stroke-width:0.5;" x="102.2625" xlink:href="#m13becc3488" y="190.8"/>
      </g>
     </g>
     <g id="line2d_22">
      <g>
       <use style="stroke:#000000;stroke-width:0.5;" x="736.29" xlink:href="#m2b85910e63" y="190.8"/>
      </g>
     </g>
     <g id="text_10">
      <!-- 0.3 -->
      <g transform="translate(79.17875 194.11125)scale(0.12 -0.12)">
       <use xlink:href="#BitstreamVeraSans-Roman-30"/>
       <use x="63.623046875" xlink:href="#BitstreamVeraSans-Roman-2e"/>
       <use x="95.41015625" xlink:href="#BitstreamVeraSans-Roman-33"/>
      </g>
     </g>
    </g>
    <g id="ytick_5">
     <g id="line2d_23">
      <g>
       <use style="stroke:#000000;stroke-width:0.5;" x="102.2625" xlink:href="#m13becc3488" y="139.92"/>
      </g>
     </g>
     <g id="line2d_24">
      <g>
       <use style="stroke:#000000;stroke-width:0.5;" x="736.29" xlink:href="#m2b85910e63" y="139.92"/>
      </g>
     </g>
     <g id="text_11">
      <!-- 0.4 -->
      <g transform="translate(79.17875 143.23125)scale(0.12 -0.12)">
       <use xlink:href="#BitstreamVeraSans-Roman-30"/>
       <use x="63.623046875" xlink:href="#BitstreamVeraSans-Roman-2e"/>
       <use x="95.41015625" xlink:href="#BitstreamVeraSans-Roman-34"/>
      </g>
     </g>
    </g>
    <g id="ytick_6">
     <g id="line2d_25">
      <g>
       <use style="stroke:#000000;stroke-width:0.5;" x="102.2625" xlink:href="#m13becc3488" y="89.04"/>
      </g>
     </g>
     <g id="line2d_26">
      <g>
       <use style="stroke:#000000;stroke-width:0.5;" x="736.29" xlink:href="#m2b85910e63" y="89.04"/>
      </g>
     </g>
     <g id="text_12">
      <!-- 0.5 -->
      <g transform="translate(79.17875 92.35125)scale(0.12 -0.12)">
       <use xlink:href="#BitstreamVeraSans-Roman-30"/>
       <use x="63.623046875" xlink:href="#BitstreamVeraSans-Roman-2e"/>
       <use x="95.41015625" xlink:href="#BitstreamVeraSans-Roman-35"/>
      </g>
     </g>
    </g>
    <g id="ytick_7">
     <g id="line2d_27">
      <g>
       <use style="stroke:#000000;stroke-width:0.5;" x="102.2625" xlink:href="#m13becc3488" y="38.16"/>
      </g>
     </g>
     <g id="line2d_28">
      <g>
       <use style="stroke:#000000;stroke-width:0.5;" x="736.29" xlink:href="#m2b85910e63" y="38.16"/>
      </g>
     </g>
     <g id="text_13">
      <!-- 0.6 -->
      <defs>
       <path d="M 33.015625 40.375 
Q 26.375 40.375 22.484375 35.828125 
Q 18.609375 31.296875 18.609375 23.390625 
Q 18.609375 15.53125 22.484375 10.953125 
Q 26.375 6.390625 33.015625 6.390625 
Q 39.65625 6.390625 43.53125 10.953125 
Q 47.40625 15.53125 47.40625 23.390625 
Q 47.40625 31.296875 43.53125 35.828125 
Q 39.65625 40.375 33.015625 40.375 
M 52.59375 71.296875 
L 52.59375 62.3125 
Q 48.875 64.0625 45.09375 64.984375 
Q 41.3125 65.921875 37.59375 65.921875 
Q 27.828125 65.921875 22.671875 59.328125 
Q 17.53125 52.734375 16.796875 39.40625 
Q 19.671875 43.65625 24.015625 45.921875 
Q 28.375 48.1875 33.59375 48.1875 
Q 44.578125 48.1875 50.953125 41.515625 
Q 57.328125 34.859375 57.328125 23.390625 
Q 57.328125 12.15625 50.6875 5.359375 
Q 44.046875 -1.421875 33.015625 -1.421875 
Q 20.359375 -1.421875 13.671875 8.265625 
Q 6.984375 17.96875 6.984375 36.375 
Q 6.984375 53.65625 15.1875 63.9375 
Q 23.390625 74.21875 37.203125 74.21875 
Q 40.921875 74.21875 44.703125 73.484375 
Q 48.484375 72.75 52.59375 71.296875 
" id="BitstreamVeraSans-Roman-36"/>
      </defs>
      <g transform="translate(79.17875 41.47125)scale(0.12 -0.12)">
       <use xlink:href="#BitstreamVeraSans-Roman-30"/>
       <use x="63.623046875" xlink:href="#BitstreamVeraSans-Roman-2e"/>
       <use x="95.41015625" xlink:href="#BitstreamVeraSans-Roman-36"/>
      </g>
     </g>
    </g>
   </g>
  </g>
 </g>
 <defs>
  <clipPath id="p7338b7ea91">
   <rect height="305.28" width="634.0275" x="102.2625" y="38.16"/>
  </clipPath>
 </defs>
</svg>
