<?xml version="1.0" encoding="utf-8" standalone="no"?>
<!DOCTYPE svg PUBLIC "-//W3C//DTD SVG 1.1//EN"
  "http://www.w3.org/Graphics/SVG/1.1/DTD/svg11.dtd">
<!-- Created with matplotlib (http://matplotlib.org/) -->
<svg height="214pt" version="1.1" viewBox="0 0 576 214" width="576pt" xmlns="http://www.w3.org/2000/svg" xmlns:xlink="http://www.w3.org/1999/xlink">
 <defs>
  <style type="text/css">
*{stroke-linecap:butt;stroke-linejoin:round;stroke-miterlimit:100000;}
  </style>
 </defs>
 <g id="figure_1">
  <g id="patch_1">
   <path d="M 0 214.2 
L 576 214.2 
L 576 0 
L 0 0 
z
" style="fill:#ffffff;"/>
  </g>
  <g id="axes_1">
   <g id="patch_2">
    <path d="M 72 192.78 
L 518.4 192.78 
L 518.4 21.42 
L 72 21.42 
z
" style="fill:#ffffff;"/>
   </g>
   <g id="line2d_1">
    <path clip-path="url(#p040b7551b9)" d="M 72 149.94 
L 74.232 149.94 
L 74.232 149.94 
L 74.232 149.94 
L 76.464 149.94 
L 76.464 149.94 
L 76.464 149.94 
L 78.696 149.94 
L 78.696 64.26 
L 80.928 64.26 
L 80.928 149.94 
L 118.872 149.94 
L 118.872 64.26 
L 121.104 64.26 
L 121.104 149.94 
L 136.728 149.94 
L 136.728 64.26 
L 138.96 64.26 
L 138.96 149.94 
L 161.28 149.94 
L 161.28 64.26 
L 163.512 64.26 
L 163.512 149.94 
L 172.44 149.94 
L 172.44 64.26 
L 174.672 64.26 
L 174.672 149.94 
L 181.368 149.94 
L 181.368 64.26 
L 183.6 64.26 
L 183.6 149.94 
L 188.064 149.94 
L 188.064 64.26 
L 190.296 64.26 
L 190.296 149.94 
L 199.224 149.94 
L 199.224 64.26 
L 201.456 64.26 
L 201.456 149.94 
L 205.92 149.94 
L 205.92 64.26 
L 208.152 64.26 
L 208.152 149.94 
L 221.544 149.94 
L 221.544 64.26 
L 228.24 64.26 
L 228.24 149.94 
L 232.704 149.94 
L 232.704 64.26 
L 234.936 64.26 
L 234.936 149.94 
L 239.4 149.94 
L 239.4 64.26 
L 241.632 64.26 
L 241.632 149.94 
L 248.328 149.94 
L 248.328 64.26 
L 250.56 64.26 
L 250.56 149.94 
L 261.72 149.94 
L 261.72 64.26 
L 263.952 64.26 
L 263.952 149.94 
L 268.416 149.94 
L 268.416 64.26 
L 270.648 64.26 
L 270.648 149.94 
L 272.88 149.94 
L 272.88 64.26 
L 275.112 64.26 
L 275.112 149.94 
L 277.344 149.94 
L 277.344 64.26 
L 279.576 64.26 
L 279.576 149.94 
L 281.808 149.94 
L 281.808 64.26 
L 284.04 64.26 
L 284.04 149.94 
L 292.968 149.94 
L 292.968 64.26 
L 299.664 64.26 
L 299.664 149.94 
L 304.128 149.94 
L 304.128 64.26 
L 306.36 64.26 
L 306.36 149.94 
L 313.056 149.94 
L 313.056 64.26 
L 315.288 64.26 
L 315.288 149.94 
L 321.984 149.94 
L 321.984 64.26 
L 328.68 64.26 
L 328.68 149.94 
L 330.912 149.94 
L 330.912 64.26 
L 333.144 64.26 
L 333.144 149.94 
L 335.376 149.94 
L 335.376 64.26 
L 342.072 64.26 
L 342.072 149.94 
L 344.304 149.94 
L 344.304 64.26 
L 353.232 64.26 
L 353.232 149.94 
L 359.928 149.94 
L 359.928 64.26 
L 362.16 64.26 
L 362.16 149.94 
L 366.624 149.94 
L 366.624 64.26 
L 368.856 64.26 
L 368.856 149.94 
L 382.248 149.94 
L 382.248 64.26 
L 384.48 64.26 
L 384.48 149.94 
L 386.712 149.94 
L 386.712 64.26 
L 388.944 64.26 
L 388.944 149.94 
L 391.176 149.94 
L 391.176 64.26 
L 397.872 64.26 
L 397.872 149.94 
L 400.104 149.94 
L 400.104 64.26 
L 402.336 64.26 
L 402.336 149.94 
L 404.568 149.94 
L 404.568 64.26 
L 406.8 64.26 
L 406.8 149.94 
L 411.264 149.94 
L 411.264 64.26 
L 413.496 64.26 
L 413.496 149.94 
L 429.12 149.94 
L 429.12 64.26 
L 431.352 64.26 
L 431.352 149.94 
L 435.816 149.94 
L 435.816 64.26 
L 438.048 64.26 
L 438.048 149.94 
L 440.28 149.94 
L 440.28 64.26 
L 442.512 64.26 
L 442.512 149.94 
L 444.744 149.94 
L 444.744 64.26 
L 451.44 64.26 
L 451.44 149.94 
L 460.368 149.94 
L 460.368 64.26 
L 464.832 64.26 
L 464.832 149.94 
L 469.296 149.94 
L 469.296 64.26 
L 471.528 64.26 
L 471.528 149.94 
L 480.456 149.94 
L 480.456 64.26 
L 482.688 64.26 
L 482.688 149.94 
L 489.384 149.94 
L 489.384 64.26 
L 491.616 64.26 
L 491.616 149.94 
L 493.848 149.94 
L 493.848 64.26 
L 500.544 64.26 
L 500.544 149.94 
L 505.008 149.94 
L 505.008 64.26 
L 518.4 64.26 
L 518.4 64.26 
" style="fill:none;stroke:#0000ff;stroke-linecap:square;"/>
   </g>
   <g id="patch_3">
    <path d="M 72 192.78 
L 72 21.42 
" style="fill:none;stroke:#000000;stroke-linecap:square;stroke-linejoin:miter;"/>
   </g>
   <g id="patch_4">
    <path d="M 72 21.42 
L 518.4 21.42 
" style="fill:none;stroke:#000000;stroke-linecap:square;stroke-linejoin:miter;"/>
   </g>
   <g id="patch_5">
    <path d="M 72 192.78 
L 518.4 192.78 
" style="fill:none;stroke:#000000;stroke-linecap:square;stroke-linejoin:miter;"/>
   </g>
   <g id="patch_6">
    <path d="M 518.4 192.78 
L 518.4 21.42 
" style="fill:none;stroke:#000000;stroke-linecap:square;stroke-linejoin:miter;"/>
   </g>
   <g id="matplotlib.axis_1">
    <g id="xtick_1">
     <g id="line2d_2">
      <defs>
       <path d="M 0 0 
L 0 -4 
" id="m50e6a5f3ef" style="stroke:#000000;stroke-width:0.5;"/>
      </defs>
      <g>
       <use style="stroke:#000000;stroke-width:0.5;" x="72.0" xlink:href="#m50e6a5f3ef" y="192.78"/>
      </g>
     </g>
     <g id="line2d_3">
      <defs>
       <path d="M 0 0 
L 0 4 
" id="m1b67d13ba8" style="stroke:#000000;stroke-width:0.5;"/>
      </defs>
      <g>
       <use style="stroke:#000000;stroke-width:0.5;" x="72.0" xlink:href="#m1b67d13ba8" y="21.42"/>
      </g>
     </g>
     <g id="text_1">
      <!-- 0.0 -->
      <defs>
       <path d="M 31.78125 66.40625 
Q 24.171875 66.40625 20.328125 58.90625 
Q 16.5 51.421875 16.5 36.375 
Q 16.5 21.390625 20.328125 13.890625 
Q 24.171875 6.390625 31.78125 6.390625 
Q 39.453125 6.390625 43.28125 13.890625 
Q 47.125 21.390625 47.125 36.375 
Q 47.125 51.421875 43.28125 58.90625 
Q 39.453125 66.40625 31.78125 66.40625 
M 31.78125 74.21875 
Q 44.046875 74.21875 50.515625 64.515625 
Q 56.984375 54.828125 56.984375 36.375 
Q 56.984375 17.96875 50.515625 8.265625 
Q 44.046875 -1.421875 31.78125 -1.421875 
Q 19.53125 -1.421875 13.0625 8.265625 
Q 6.59375 17.96875 6.59375 36.375 
Q 6.59375 54.828125 13.0625 64.515625 
Q 19.53125 74.21875 31.78125 74.21875 
" id="BitstreamVeraSans-Roman-30"/>
       <path d="M 10.6875 12.40625 
L 21 12.40625 
L 21 0 
L 10.6875 0 
z
" id="BitstreamVeraSans-Roman-2e"/>
      </defs>
      <g transform="translate(62.458125 205.898125)scale(0.12 -0.12)">
       <use xlink:href="#BitstreamVeraSans-Roman-30"/>
       <use x="63.623046875" xlink:href="#BitstreamVeraSans-Roman-2e"/>
       <use x="95.41015625" xlink:href="#BitstreamVeraSans-Roman-30"/>
      </g>
     </g>
    </g>
    <g id="xtick_2">
     <g id="line2d_4">
      <g>
       <use style="stroke:#000000;stroke-width:0.5;" x="183.6" xlink:href="#m50e6a5f3ef" y="192.78"/>
      </g>
     </g>
     <g id="line2d_5">
      <g>
       <use style="stroke:#000000;stroke-width:0.5;" x="183.6" xlink:href="#m1b67d13ba8" y="21.42"/>
      </g>
     </g>
     <g id="text_2">
      <!-- 0.5 -->
      <defs>
       <path d="M 10.796875 72.90625 
L 49.515625 72.90625 
L 49.515625 64.59375 
L 19.828125 64.59375 
L 19.828125 46.734375 
Q 21.96875 47.46875 24.109375 47.828125 
Q 26.265625 48.1875 28.421875 48.1875 
Q 40.625 48.1875 47.75 41.5 
Q 54.890625 34.8125 54.890625 23.390625 
Q 54.890625 11.625 47.5625 5.09375 
Q 40.234375 -1.421875 26.90625 -1.421875 
Q 22.3125 -1.421875 17.546875 -0.640625 
Q 12.796875 0.140625 7.71875 1.703125 
L 7.71875 11.625 
Q 12.109375 9.234375 16.796875 8.0625 
Q 21.484375 6.890625 26.703125 6.890625 
Q 35.15625 6.890625 40.078125 11.328125 
Q 45.015625 15.765625 45.015625 23.390625 
Q 45.015625 31 40.078125 35.4375 
Q 35.15625 39.890625 26.703125 39.890625 
Q 22.75 39.890625 18.8125 39.015625 
Q 14.890625 38.140625 10.796875 36.28125 
z
" id="BitstreamVeraSans-Roman-35"/>
      </defs>
      <g transform="translate(174.058125 205.898125)scale(0.12 -0.12)">
       <use xlink:href="#BitstreamVeraSans-Roman-30"/>
       <use x="63.623046875" xlink:href="#BitstreamVeraSans-Roman-2e"/>
       <use x="95.41015625" xlink:href="#BitstreamVeraSans-Roman-35"/>
      </g>
     </g>
    </g>
    <g id="xtick_3">
     <g id="line2d_6">
      <g>
       <use style="stroke:#000000;stroke-width:0.5;" x="295.2" xlink:href="#m50e6a5f3ef" y="192.78"/>
      </g>
     </g>
     <g id="line2d_7">
      <g>
       <use style="stroke:#000000;stroke-width:0.5;" x="295.2" xlink:href="#m1b67d13ba8" y="21.42"/>
      </g>
     </g>
     <g id="text_3">
      <!-- 1.0 -->
      <defs>
       <path d="M 12.40625 8.296875 
L 28.515625 8.296875 
L 28.515625 63.921875 
L 10.984375 60.40625 
L 10.984375 69.390625 
L 28.421875 72.90625 
L 38.28125 72.90625 
L 38.28125 8.296875 
L 54.390625 8.296875 
L 54.390625 0 
L 12.40625 0 
z
" id="BitstreamVeraSans-Roman-31"/>
      </defs>
      <g transform="translate(285.658125 205.898125)scale(0.12 -0.12)">
       <use xlink:href="#BitstreamVeraSans-Roman-31"/>
       <use x="63.623046875" xlink:href="#BitstreamVeraSans-Roman-2e"/>
       <use x="95.41015625" xlink:href="#BitstreamVeraSans-Roman-30"/>
      </g>
     </g>
    </g>
    <g id="xtick_4">
     <g id="line2d_8">
      <g>
       <use style="stroke:#000000;stroke-width:0.5;" x="406.8" xlink:href="#m50e6a5f3ef" y="192.78"/>
      </g>
     </g>
     <g id="line2d_9">
      <g>
       <use style="stroke:#000000;stroke-width:0.5;" x="406.8" xlink:href="#m1b67d13ba8" y="21.42"/>
      </g>
     </g>
     <g id="text_4">
      <!-- 1.5 -->
      <g transform="translate(397.258125 205.898125)scale(0.12 -0.12)">
       <use xlink:href="#BitstreamVeraSans-Roman-31"/>
       <use x="63.623046875" xlink:href="#BitstreamVeraSans-Roman-2e"/>
       <use x="95.41015625" xlink:href="#BitstreamVeraSans-Roman-35"/>
      </g>
     </g>
    </g>
    <g id="xtick_5">
     <g id="line2d_10">
      <g>
       <use style="stroke:#000000;stroke-width:0.5;" x="518.4" xlink:href="#m50e6a5f3ef" y="192.78"/>
      </g>
     </g>
     <g id="line2d_11">
      <g>
       <use style="stroke:#000000;stroke-width:0.5;" x="518.4" xlink:href="#m1b67d13ba8" y="21.42"/>
      </g>
     </g>
     <g id="text_5">
      <!-- 2.0 -->
      <defs>
       <path d="M 19.1875 8.296875 
L 53.609375 8.296875 
L 53.609375 0 
L 7.328125 0 
L 7.328125 8.296875 
Q 12.9375 14.109375 22.625 23.890625 
Q 32.328125 33.6875 34.8125 36.53125 
Q 39.546875 41.84375 41.421875 45.53125 
Q 43.3125 49.21875 43.3125 52.78125 
Q 43.3125 58.59375 39.234375 62.25 
Q 35.15625 65.921875 28.609375 65.921875 
Q 23.96875 65.921875 18.8125 64.3125 
Q 13.671875 62.703125 7.8125 59.421875 
L 7.8125 69.390625 
Q 13.765625 71.78125 18.9375 73 
Q 24.125 74.21875 28.421875 74.21875 
Q 39.75 74.21875 46.484375 68.546875 
Q 53.21875 62.890625 53.21875 53.421875 
Q 53.21875 48.921875 51.53125 44.890625 
Q 49.859375 40.875 45.40625 35.40625 
Q 44.1875 33.984375 37.640625 27.21875 
Q 31.109375 20.453125 19.1875 8.296875 
" id="BitstreamVeraSans-Roman-32"/>
      </defs>
      <g transform="translate(508.858125 205.898125)scale(0.12 -0.12)">
       <use xlink:href="#BitstreamVeraSans-Roman-32"/>
       <use x="63.623046875" xlink:href="#BitstreamVeraSans-Roman-2e"/>
       <use x="95.41015625" xlink:href="#BitstreamVeraSans-Roman-30"/>
      </g>
     </g>
    </g>
   </g>
   <g id="matplotlib.axis_2">
    <g id="ytick_1"/>
    <g id="ytick_2"/>
    <g id="ytick_3"/>
    <g id="ytick_4"/>
    <g id="ytick_5"/>
   </g>
  </g>
 </g>
 <defs>
  <clipPath id="p040b7551b9">
   <rect height="171.36" width="446.4" x="72.0" y="21.42"/>
  </clipPath>
 </defs>
</svg>
