<?xml version="1.0" encoding="utf-8" standalone="no"?>
<!DOCTYPE svg PUBLIC "-//W3C//DTD SVG 1.1//EN"
  "http://www.w3.org/Graphics/SVG/1.1/DTD/svg11.dtd">
<!-- Created with matplotlib (http://matplotlib.org/) -->
<svg height="243pt" version="1.1" viewBox="0 0 576 243" width="576pt" xmlns="http://www.w3.org/2000/svg" xmlns:xlink="http://www.w3.org/1999/xlink">
 <defs>
  <style type="text/css">
*{stroke-linecap:butt;stroke-linejoin:round;stroke-miterlimit:100000;}
  </style>
 </defs>
 <g id="figure_1">
  <g id="patch_1">
   <path d="M 0 243.9 
L 576 243.9 
L 576 0 
L 0 0 
z
" style="fill:#ffffff;"/>
  </g>
  <g id="axes_1">
   <g id="patch_2">
    <path d="M 72 219.51 
L 518.4 219.51 
L 518.4 24.39 
L 72 24.39 
z
" style="fill:#ffffff;"/>
   </g>
   <g id="line2d_1">
    <path clip-path="url(#pc3dcffed94)" d="M 72 170.73 
L 74.232 170.73 
L 74.232 170.73 
L 74.232 170.73 
L 76.464 170.73 
L 76.464 170.73 
L 76.464 170.73 
L 78.696 170.73 
L 78.696 170.73 
L 78.696 170.73 
L 80.928 170.73 
L 80.928 170.73 
L 80.928 170.73 
L 83.16 170.73 
L 83.16 170.73 
L 83.16 170.73 
L 85.392 170.73 
L 85.392 170.73 
L 85.392 170.73 
L 87.624 170.73 
L 87.624 170.73 
L 87.624 170.73 
L 89.856 170.73 
L 89.856 170.73 
L 89.856 170.73 
L 92.088 170.73 
L 92.088 170.73 
L 92.088 170.73 
L 94.32 170.73 
L 94.32 170.73 
L 94.32 170.73 
L 96.552 170.73 
L 96.552 170.73 
L 96.552 170.73 
L 98.784 170.73 
L 98.784 73.17 
L 101.016 73.17 
L 101.016 170.73 
L 134.496 170.73 
L 134.496 73.17 
L 136.728 73.17 
L 136.728 170.73 
L 141.192 170.73 
L 141.192 73.17 
L 143.424 73.17 
L 143.424 170.73 
L 163.512 170.73 
L 163.512 73.17 
L 167.976 73.17 
L 167.976 170.73 
L 183.6 170.73 
L 183.6 73.17 
L 185.832 73.17 
L 185.832 170.73 
L 188.064 170.73 
L 188.064 73.17 
L 190.296 73.17 
L 190.296 170.73 
L 203.688 170.73 
L 203.688 73.17 
L 208.152 73.17 
L 208.152 170.73 
L 219.312 170.73 
L 219.312 73.17 
L 223.776 73.17 
L 223.776 170.73 
L 230.472 170.73 
L 230.472 73.17 
L 232.704 73.17 
L 232.704 170.73 
L 234.936 170.73 
L 234.936 73.17 
L 237.168 73.17 
L 237.168 170.73 
L 241.632 170.73 
L 241.632 73.17 
L 246.096 73.17 
L 246.096 170.73 
L 270.648 170.73 
L 270.648 73.17 
L 275.112 73.17 
L 275.112 170.73 
L 281.808 170.73 
L 281.808 73.17 
L 284.04 73.17 
L 284.04 170.73 
L 286.272 170.73 
L 286.272 73.17 
L 288.504 73.17 
L 288.504 170.73 
L 290.736 170.73 
L 290.736 73.17 
L 292.968 73.17 
L 292.968 170.73 
L 299.664 170.73 
L 299.664 73.17 
L 301.896 73.17 
L 301.896 170.73 
L 306.36 170.73 
L 306.36 73.17 
L 308.592 73.17 
L 308.592 170.73 
L 317.52 170.73 
L 317.52 73.17 
L 321.984 73.17 
L 321.984 170.73 
L 333.144 170.73 
L 333.144 73.17 
L 346.536 73.17 
L 346.536 170.73 
L 357.696 170.73 
L 357.696 73.17 
L 359.928 73.17 
L 359.928 170.73 
L 371.088 170.73 
L 371.088 73.17 
L 373.32 73.17 
L 373.32 170.73 
L 388.944 170.73 
L 388.944 73.17 
L 395.64 73.17 
L 395.64 170.73 
L 400.104 170.73 
L 400.104 73.17 
L 402.336 73.17 
L 402.336 170.73 
L 404.568 170.73 
L 404.568 73.17 
L 415.728 73.17 
L 415.728 170.73 
L 417.96 170.73 
L 417.96 73.17 
L 422.424 73.17 
L 422.424 170.73 
L 429.12 170.73 
L 429.12 73.17 
L 431.352 73.17 
L 431.352 170.73 
L 433.584 170.73 
L 433.584 73.17 
L 435.816 73.17 
L 435.816 170.73 
L 438.048 170.73 
L 438.048 73.17 
L 440.28 73.17 
L 440.28 170.73 
L 442.512 170.73 
L 442.512 73.17 
L 444.744 73.17 
L 444.744 170.73 
L 446.976 170.73 
L 446.976 73.17 
L 453.672 73.17 
L 453.672 170.73 
L 458.136 170.73 
L 458.136 73.17 
L 462.6 73.17 
L 462.6 170.73 
L 467.064 170.73 
L 467.064 73.17 
L 473.76 73.17 
L 473.76 170.73 
L 498.312 170.73 
L 498.312 73.17 
L 500.544 73.17 
L 500.544 170.73 
L 502.776 170.73 
L 502.776 73.17 
L 505.008 73.17 
L 505.008 170.73 
L 507.24 170.73 
L 507.24 73.17 
L 516.168 73.17 
L 516.168 170.73 
L 518.4 170.73 
L 518.4 170.73 
" style="fill:none;stroke:#0000ff;stroke-linecap:square;"/>
   </g>
   <g id="patch_3">
    <path d="M 72 219.51 
L 72 24.39 
" style="fill:none;stroke:#000000;stroke-linecap:square;stroke-linejoin:miter;"/>
   </g>
   <g id="patch_4">
    <path d="M 72 24.39 
L 518.4 24.39 
" style="fill:none;stroke:#000000;stroke-linecap:square;stroke-linejoin:miter;"/>
   </g>
   <g id="patch_5">
    <path d="M 72 219.51 
L 518.4 219.51 
" style="fill:none;stroke:#000000;stroke-linecap:square;stroke-linejoin:miter;"/>
   </g>
   <g id="patch_6">
    <path d="M 518.4 219.51 
L 518.4 24.39 
" style="fill:none;stroke:#000000;stroke-linecap:square;stroke-linejoin:miter;"/>
   </g>
   <g id="matplotlib.axis_1">
    <g id="xtick_1">
     <g id="line2d_2">
      <defs>
       <path d="M 0 0 
L 0 -4 
" id="m0c9cae524d" style="stroke:#000000;stroke-width:0.5;"/>
      </defs>
      <g>
       <use style="stroke:#000000;stroke-width:0.5;" x="72.0" xlink:href="#m0c9cae524d" y="219.51"/>
      </g>
     </g>
     <g id="line2d_3">
      <defs>
       <path d="M 0 0 
L 0 4 
" id="mfd52812923" style="stroke:#000000;stroke-width:0.5;"/>
      </defs>
      <g>
       <use style="stroke:#000000;stroke-width:0.5;" x="72.0" xlink:href="#mfd52812923" y="24.39"/>
      </g>
     </g>
     <g id="text_1">
      <!-- 0.0 -->
      <defs>
       <path d="M 31.78125 66.40625 
Q 24.171875 66.40625 20.328125 58.90625 
Q 16.5 51.421875 16.5 36.375 
Q 16.5 21.390625 20.328125 13.890625 
Q 24.171875 6.390625 31.78125 6.390625 
Q 39.453125 6.390625 43.28125 13.890625 
Q 47.125 21.390625 47.125 36.375 
Q 47.125 51.421875 43.28125 58.90625 
Q 39.453125 66.40625 31.78125 66.40625 
M 31.78125 74.21875 
Q 44.046875 74.21875 50.515625 64.515625 
Q 56.984375 54.828125 56.984375 36.375 
Q 56.984375 17.96875 50.515625 8.265625 
Q 44.046875 -1.421875 31.78125 -1.421875 
Q 19.53125 -1.421875 13.0625 8.265625 
Q 6.59375 17.96875 6.59375 36.375 
Q 6.59375 54.828125 13.0625 64.515625 
Q 19.53125 74.21875 31.78125 74.21875 
" id="BitstreamVeraSans-Roman-30"/>
       <path d="M 10.6875 12.40625 
L 21 12.40625 
L 21 0 
L 10.6875 0 
z
" id="BitstreamVeraSans-Roman-2e"/>
      </defs>
      <g transform="translate(62.458125 232.628125)scale(0.12 -0.12)">
       <use xlink:href="#BitstreamVeraSans-Roman-30"/>
       <use x="63.623046875" xlink:href="#BitstreamVeraSans-Roman-2e"/>
       <use x="95.41015625" xlink:href="#BitstreamVeraSans-Roman-30"/>
      </g>
     </g>
    </g>
    <g id="xtick_2">
     <g id="line2d_4">
      <g>
       <use style="stroke:#000000;stroke-width:0.5;" x="183.6" xlink:href="#m0c9cae524d" y="219.51"/>
      </g>
     </g>
     <g id="line2d_5">
      <g>
       <use style="stroke:#000000;stroke-width:0.5;" x="183.6" xlink:href="#mfd52812923" y="24.39"/>
      </g>
     </g>
     <g id="text_2">
      <!-- 0.5 -->
      <defs>
       <path d="M 10.796875 72.90625 
L 49.515625 72.90625 
L 49.515625 64.59375 
L 19.828125 64.59375 
L 19.828125 46.734375 
Q 21.96875 47.46875 24.109375 47.828125 
Q 26.265625 48.1875 28.421875 48.1875 
Q 40.625 48.1875 47.75 41.5 
Q 54.890625 34.8125 54.890625 23.390625 
Q 54.890625 11.625 47.5625 5.09375 
Q 40.234375 -1.421875 26.90625 -1.421875 
Q 22.3125 -1.421875 17.546875 -0.640625 
Q 12.796875 0.140625 7.71875 1.703125 
L 7.71875 11.625 
Q 12.109375 9.234375 16.796875 8.0625 
Q 21.484375 6.890625 26.703125 6.890625 
Q 35.15625 6.890625 40.078125 11.328125 
Q 45.015625 15.765625 45.015625 23.390625 
Q 45.015625 31 40.078125 35.4375 
Q 35.15625 39.890625 26.703125 39.890625 
Q 22.75 39.890625 18.8125 39.015625 
Q 14.890625 38.140625 10.796875 36.28125 
z
" id="BitstreamVeraSans-Roman-35"/>
      </defs>
      <g transform="translate(174.058125 232.628125)scale(0.12 -0.12)">
       <use xlink:href="#BitstreamVeraSans-Roman-30"/>
       <use x="63.623046875" xlink:href="#BitstreamVeraSans-Roman-2e"/>
       <use x="95.41015625" xlink:href="#BitstreamVeraSans-Roman-35"/>
      </g>
     </g>
    </g>
    <g id="xtick_3">
     <g id="line2d_6">
      <g>
       <use style="stroke:#000000;stroke-width:0.5;" x="295.2" xlink:href="#m0c9cae524d" y="219.51"/>
      </g>
     </g>
     <g id="line2d_7">
      <g>
       <use style="stroke:#000000;stroke-width:0.5;" x="295.2" xlink:href="#mfd52812923" y="24.39"/>
      </g>
     </g>
     <g id="text_3">
      <!-- 1.0 -->
      <defs>
       <path d="M 12.40625 8.296875 
L 28.515625 8.296875 
L 28.515625 63.921875 
L 10.984375 60.40625 
L 10.984375 69.390625 
L 28.421875 72.90625 
L 38.28125 72.90625 
L 38.28125 8.296875 
L 54.390625 8.296875 
L 54.390625 0 
L 12.40625 0 
z
" id="BitstreamVeraSans-Roman-31"/>
      </defs>
      <g transform="translate(285.658125 232.628125)scale(0.12 -0.12)">
       <use xlink:href="#BitstreamVeraSans-Roman-31"/>
       <use x="63.623046875" xlink:href="#BitstreamVeraSans-Roman-2e"/>
       <use x="95.41015625" xlink:href="#BitstreamVeraSans-Roman-30"/>
      </g>
     </g>
    </g>
    <g id="xtick_4">
     <g id="line2d_8">
      <g>
       <use style="stroke:#000000;stroke-width:0.5;" x="406.8" xlink:href="#m0c9cae524d" y="219.51"/>
      </g>
     </g>
     <g id="line2d_9">
      <g>
       <use style="stroke:#000000;stroke-width:0.5;" x="406.8" xlink:href="#mfd52812923" y="24.39"/>
      </g>
     </g>
     <g id="text_4">
      <!-- 1.5 -->
      <g transform="translate(397.258125 232.628125)scale(0.12 -0.12)">
       <use xlink:href="#BitstreamVeraSans-Roman-31"/>
       <use x="63.623046875" xlink:href="#BitstreamVeraSans-Roman-2e"/>
       <use x="95.41015625" xlink:href="#BitstreamVeraSans-Roman-35"/>
      </g>
     </g>
    </g>
    <g id="xtick_5">
     <g id="line2d_10">
      <g>
       <use style="stroke:#000000;stroke-width:0.5;" x="518.4" xlink:href="#m0c9cae524d" y="219.51"/>
      </g>
     </g>
     <g id="line2d_11">
      <g>
       <use style="stroke:#000000;stroke-width:0.5;" x="518.4" xlink:href="#mfd52812923" y="24.39"/>
      </g>
     </g>
     <g id="text_5">
      <!-- 2.0 -->
      <defs>
       <path d="M 19.1875 8.296875 
L 53.609375 8.296875 
L 53.609375 0 
L 7.328125 0 
L 7.328125 8.296875 
Q 12.9375 14.109375 22.625 23.890625 
Q 32.328125 33.6875 34.8125 36.53125 
Q 39.546875 41.84375 41.421875 45.53125 
Q 43.3125 49.21875 43.3125 52.78125 
Q 43.3125 58.59375 39.234375 62.25 
Q 35.15625 65.921875 28.609375 65.921875 
Q 23.96875 65.921875 18.8125 64.3125 
Q 13.671875 62.703125 7.8125 59.421875 
L 7.8125 69.390625 
Q 13.765625 71.78125 18.9375 73 
Q 24.125 74.21875 28.421875 74.21875 
Q 39.75 74.21875 46.484375 68.546875 
Q 53.21875 62.890625 53.21875 53.421875 
Q 53.21875 48.921875 51.53125 44.890625 
Q 49.859375 40.875 45.40625 35.40625 
Q 44.1875 33.984375 37.640625 27.21875 
Q 31.109375 20.453125 19.1875 8.296875 
" id="BitstreamVeraSans-Roman-32"/>
      </defs>
      <g transform="translate(508.858125 232.628125)scale(0.12 -0.12)">
       <use xlink:href="#BitstreamVeraSans-Roman-32"/>
       <use x="63.623046875" xlink:href="#BitstreamVeraSans-Roman-2e"/>
       <use x="95.41015625" xlink:href="#BitstreamVeraSans-Roman-30"/>
      </g>
     </g>
    </g>
   </g>
   <g id="matplotlib.axis_2">
    <g id="ytick_1"/>
    <g id="ytick_2"/>
    <g id="ytick_3"/>
    <g id="ytick_4"/>
    <g id="ytick_5"/>
   </g>
  </g>
 </g>
 <defs>
  <clipPath id="pc3dcffed94">
   <rect height="195.12" width="446.4" x="72.0" y="24.39"/>
  </clipPath>
 </defs>
</svg>
